<!-- 
2013-9-30: Created.
 -->
<svg>
<metadata>Created by iconfont</metadata>
<defs>
<font id="tic" horiz-adv-x="1024">
<font-face font-family="tic" font-weight="500" font-stretch="normal" units-per-em="1024" ascent="896" descent="-128"/>
<missing-glyph/>
<glyph glyph-name="refresh" unicode="" d="M148.18608702697043 466.6063672378793c13.215752410784424 75.46137415508524 49.71640192628432 142.9704124439409 103.38036626098479 195.37573369189994 7.151381174666908 6.922536977077572 14.588817596320492 13.33017450957912 22.026254017974075 19.73781204208068 3.0893966674561044 2.517286173482753 6.350426483104214 4.8629391987735 9.55424524935499 7.265803273461582 6.178793334912209 4.805728149376166 12.18595352163241 9.439823150560324 18.593591054133967 13.673440805963137 3.833140309621463 2.688919321674759 8.009546915626938 5.034572346965508 11.899898274645734 7.437436421653588 6.350426483104214 4.0619845072108065 12.643641916811092 8.066757965024276 19.22291259750465 11.671054077056402 3.3182408650454454 1.4874872843307179 6.350426483104214 3.032185618058771 9.725878397546998 4.4624618529921545 7.7234916686402615 4.0619845072108065 15.618616485472526 7.8379137674349355 23.57095235170213 11.09894358308305 1.8307535807147288 0.6865325927680237 3.5470850626347863 1.487487284330717 5.320627593952181 2.231230926496077 9.611456298752325 3.5470850626347894 19.22291259750465 6.979748026474908 28.891579945654307 10.011933644533679 0.4004773457813469 0.05721104939733538 0.8581657409600292 0.28605524698667645 1.258643086741376 0.3432662963840118 33.18240865045446 9.611456298752337 67.16577199247163 14.646028645717845 101.60682372966743 14.531606546923177 0.5721104939733529 1.7965327442428209e-16 1.1442209879467058-0.11442209879467019 1.7735425313173936-0.057211049397335026 10.641255187904362 1.1497809563154056e-15 21.225299326411392-0.4004773457813456 31.980976613110418-1.5446983337280538 2.1740198770987407-0.22884419758934096 4.348039754197481-0.45768839517868193 6.808114878282898-0.8581657409600286C622.2368423332903 753.2337247185292 698.441960130541 719.0215171789226 758.4563509483455 659.007126361118l-67.1657719924716-67.16577199247163L959.724822728171 538.1773900339458 906.0608583934707 806.6116338062432l-67.05134989367693-67.05134989367697c-70.54122390691441 70.54122390691438-158.07412948483739 113.90719935009453-249.61180852057385 130.72724787291108-1.258643086741376 0.3432662963840113-2.4028640746880816 0.915376790357364-3.604296112032122 1.0870099385493692-9.43982315056032 1.77354253131739-18.87964630112064 2.51728617348275-28.147836303488955 3.547085062634781-3.489874013237452 0.28605524698667584-6.808114878282898 0.8581657409600286-10.584044138507029 1.31585413613871-13.387385558976455 1.2586430867413725-26.946404266144913 1.659120432522718-40.448211923916034 1.8879646301120516-1.373065185536047-1.437226195394257e-16-2.517286173482752-4.311678586182771e-16-3.718718210826793 0.05721104939733488-45.02509587570287 0.05721104939732655-89.24923705984301-6.407637532501575-132.10031305844717-18.82243525172333-1.1442209879467058-0.3432662963840121-2.116808827701405-0.6293215433706886-3.4326629638401167-1.0297988891520358-12.243164571029748-3.661507161429463-24.37190704326482-7.895124816832273-36.214594268513224-12.529219818016438-3.0321856180587696-1.2014320373440415-5.949949137322868-2.2884419758934134-8.810501607189632-3.4326629638401185-10.183566792725678-4.119195556608143-19.96665623967001-8.867712656586972-29.80695673601167-13.673440805963137-4.691306050581491-2.288441975893412-9.210978952970978-4.519672902389488-13.902285003552468-6.922536977077573-8.238391113216279-4.576883951786824-16.41957117703522-9.43982315056032-24.543540191456827-14.588817596320503-5.43504969274685-3.3754519144427824-10.812888336096366-6.464848581898891-16.133515930048546-10.183566792725683-2.288441975893411-1.3730651855360472-4.576883951786823-2.517286173482754-6.579270680693558-4.176406606005477-7.437436421653583-5.148994445760177-14.245551299936485-10.812888336096368-21.16808827701405-16.247938028843222-2.688919321674758-1.887964630112065-5.320627593952181-3.7187182108267938-7.780702718037595-5.7211049397335305-12.300375620427081-10.12635574332835-24.143062845675484-20.59597778304071-35.29921747815586-31.752132415521082-68.13835983222631-68.13835983222633-113.90719935009453-155.55684331135464-130.95609207050035-252.70120518802986-5.435049692746841-30.951177723958384 15.275350189088524-60.586501311778065 46.05489476485492-65.96433995512756C113.40176899339065 414.88757858268815 142.86545943301815 435.54076741512637 148.18608702697043 466.6063672378793M167.9811101184486 68.53188553122061c70.36959075872241-70.36959075872238 157.55923004026135-113.96441039949184 248.63922068081914-130.67003682351373 1.487487284330717-0.3432662963840113 2.8033414204694282-0.972587839754699 4.061984507210806-1.3158541361387108 11.442209879467057-1.8307535807147277 22.541153462550096-3.0893966674560978 33.86894124322248-4.2336176554028055 1.258643086741376-0.11442209879467033 2.631708272277423-0.3432662963840113 3.947562408416134-0.6293215433706866 75.4041631056879-6.979748026474878 150.12179361860774 3.775929260224177 219.34716338938344 31.237232970945087 2.0023867289067345 0.8581657409600292 3.833140309621463 1.430276234933383 5.835527038528198 2.288441975893412C694.666030870317-30.21438572857994 705.3072860582212-25.06539128281986 716.1201743943178-19.744763688867693 719.7816815557469-17.914010108152866 723.7292439641633-16.026045478041283 727.4479621749902-14.023658749134142 736.5445190291664-9.160719550360568 745.2405985375613-3.897303005805611 753.9938890953536 1.53774668694075 758.7996172447297 4.6271433543971625 763.8341895916951 7.602117923058358 768.582706691674 10.748725639912095 770.8711486675675 12.350635023037512 773.2168016928583 13.552067060381546 775.6768768169438 15.211187492904287 781.8556701518557 19.67364934589648 787.5767750915893 24.364955396477512 793.5267242289124 29.056261447059455 797.6459197855203 32.37450231210471 801.7651153421285 35.34947688076625 805.8843108987365 38.66771774581173 815.6674003456809 46.73447571083602 824.8783792986522 55.25892207103891 833.9177251034309 63.955001579434c1.6019093831253874 1.6019093831253879 3.432662963840116 2.974974568661435 5.034572346965503 4.576883951786824 0.2860552469866764 0.28605524698667645 0.5148994445760174 0.6293215433706881 0.7437436421653582 0.9725878397546999 68.02393773343164 68.13835983222633 113.96441039949184 155.1563659655733 130.95609207050038 252.12909469405662C976.1443939052065 352.5275347395932 955.4912050727683 382.10564727801534 924.368394200618 387.59790802015954 893.5888496248515 393.0901687623037 863.8963149876346 372.322557831071 858.4612652948877 341.25695800831795c-13.215752410784448-74.77484156231722-48.91544723472161-141.82619145599415-102.12172317424343-194.002668506364-7.609069569845591-7.494647471050922-15.50419438667786-14.703239695115167-23.57095235170213-21.28251037580873C730.3085146448568 123.85497029844407 727.7912284713741 122.02421671772902 725.1595201990965 120.07904103821954c-6.808114878282897-5.3206275939521825-13.616229756565792-10.526833089109692-20.824821980630034-15.218139139691187-3.032185618058769-2.116808827701406-6.350426483104214-4.0619845072108065-9.382612101162984-5.9499491373228715C687.7434938932395 94.33406880941868 680.6493237679698 89.98602905522137 673.2690983957136 86.03846664680498 670.8662343210253 84.6654014612692 668.5205812957347 83.5783915227197 666.1177172210465 82.54859263356764c-8.69607950839496-4.462461852992153-17.334947967392587-8.638868458997631-26.145449574582216-12.185953521632419C639.1141019055043 69.8477396673594 637.9698809175576 69.73331756856464 637.1117151765975 69.33284022278315c-53.721175384097826-21.45414352400075-111.44712422600911-29.520901489025-168.31490732696045-24.143062845675512C468.6251747014454 45.246988426505254 468.28190840506124 45.361410525299675 467.88143105928 45.304199475902465c-80.20989125506408 7.895124816832258-158.18855158363203 42.3933876034254-219.5187965375755 103.60921045857414l67.22298304186893 67.22298304186896-268.6630879698865 53.54954223590579 53.835597482892524-268.3770327228997L167.9811101184486 68.53188553122061z" horiz-adv-x="1000"/>
<glyph glyph-name="boss" unicode="" d="M320 704c0 106.048 85.952 192 192 192s192-85.952 192-192c0-106.048-85.952-192-192-192-106.048 0-192 85.952-192 192zM768.064 448h-35.392l-199.104-404.224 74.432 372.224-96 96-96-96 74.432-372.224-199.104 404.224h-35.456c-127.936 0-127.936-86.016-127.936-192v-320h768v320c0 105.984 0 192-127.936 192z" horiz-adv-x="1024"/>
<glyph glyph-name="company-link" unicode="" d="M1030.326382593844 331.24516721872783l-1.4210854715202004e-14 105.8687343860311c0 80.50297566723853-66.19657913823798 148.47934257372305-144.61274127283878 148.47934257372302l-28.013873614336163-0.018101933598376974-86.28399786750728 0.018809040379565545c-15.892083485811415 0-28.767578732402907-12.875495246591491-28.767578732402907-28.76757873240291 0.018809040379562436-7.9460417429057095 3.2286495628977745-15.138307657066559 8.428995674456122-20.3386537686249 5.220569365500281-5.22056936550028 12.412128172879944-8.429702781237307 20.3386537686249-8.428995674456118l86.30351401466802-0.000707106781177913 27.994286756497296 0.0014849242404899599c46.36265819002401-0.0014849242404935126 87.09780706197488-42.47583363519779 87.07751309735484-90.9441143982391l-0.0007071067811708076-105.8680272792499c0.020293964620051952-48.430662682282176-40.69526804949193-90.8478064546415-87.07680599057363-90.86661549502107l-258.8713683283263 0.0007071067811637022-100.99648582094329-0.0007071067812063347c-49.33795139322264 0.0007071067811885712-99.62434511205078 45.83840922245227-99.60475825421194 90.86661549502105l-0.0391030049996175 48.41029800698401c-0.0014142135623731455 1.5075516574897192 0.5213498297688415 3.0730153603586166 0.6378810273083839 4.542100408951788l-0.638588134089571 0.02029396462005384 0.0007071067811850185 28.729182834184478c0.018809040379560216 15.91089252619098-12.856686206211933 28.78638777278247-28.76757873240291 28.767578732402907-15.892083485811419-0.0014142135623744778-28.76764944308102-12.876980170831978-28.749476798804526-28.74947679880453l0.0007071067811921239-33.29087010097513 7.105427357601002e-15-48.449401011983625-0.018809040379561104-4.544292439973466c0.01951614716074901-2.261327486234579 0.812465691583343-4.290865369596208 1.3156428770756916-6.417559724692868 6.28356298965803-68.96108380996488 69.61784458833094-129.20361171857775 142.52522063341985-136.0287477919465l-0.0014142135623731455-1.3931417802937358c2.8427106817261585 0.020223253941935138 5.646318358452701 0.3881309121932963 8.468098679455736 0.5032478961704676 1.6241535657073807-0.03839589821842948 3.209133415737027-0.5024700787111605 4.891906133604773-0.483661038331598l359.86785414926965 2.842170943040401e-14C964.1486832066639 182.8629104060617 1030.3271604113033 250.7805874497077 1030.326382593844 331.24516721872783zM253.63322307072838 240.37925883048774l-86.30280690788683 0.001414213562370037-28.76835654986221-0.0007071067811903475c-47.57909398569922 0.01880904037955844-86.28470497428847 38.724420028968794-86.30351401466801 86.303514014668l-0.0007778174593084941 115.07109274707094c0.0007071067811814657 47.55957783853847 38.686731237531546 86.28463426361034 86.303514014668 86.30351401466801l373.9831197153155 2.842170943040401e-14c47.57909398569922-0.01880904037955844 86.26441100966841-38.70412606434874 86.28392715682917-86.28392715682915l-0.0007071067811814657-57.535864571587 0-28.76764944308102c0.018809040379562436-7.9460417429057095 3.2286495628977745-15.138307657066559 8.428217856996817-20.337875951165596 5.201760325120719-5.201760325120717 12.39331913250038-8.410893740857745 20.33936087540609-8.429702781237307 15.871789521191364 0.020293964620054616 28.74728476778285 12.895789211211547 28.76828583918409 28.768285839184095l-0.0007071067811903475 28.76835654986221-0.018101933598376974 57.51564131764506c0.000707106781177913 79.30457109448358-64.51458423782952 143.81986243909427-143.8198624390943 143.81986243909427L138.54261417649673 585.5744351381022c-79.30527820126477-0.001414213562370037-143.81915533231307-64.51529134461072-143.8386714794738-143.83867147947382l0.01958685783887404-115.05228370669137c-0.02029396462003774-79.32415795232245 64.53339327820905-143.8400856930362 143.83867147947382-143.8386714794738l28.787165590241774 0.01810193359837875 86.26441100966841-0.03698168465604823c15.912306739753355 0.01880904037956377 28.78787269702296 12.894374997649173 28.786387772782465 28.78638777278247C282.4015796205906 227.50298576643695 269.5253065565398 240.37925883048774 253.63322307072838 240.37925883048774z" horiz-adv-x="1024"/>
<glyph glyph-name="circle-weibo" unicode="" d="M358.36416 296.14284799999996c-25.598976-2.701312-43.9296-24.988672-43.9296-46.327808 0-21.387264 20.608-36.160512 46.220288-33.193984 25.505792 2.90816 46.206976 22.660096 46.206976 43.942912C406.8608 282.00447999999994 387.748864 298.947584 358.36416 296.14284799999996zM423.32672 313.77408c-8.77568-6.354944-10.575872-18.532352-5.797888-26.10176 4.580352-7.730176 15.249408-8.631296 23.90528-2.171904 8.470528 6.672384 11.766784 18.31936 7.174144 26.10176C444.028928 319.173632 433.491968 321.343488 423.32672 313.77408zM512.37888 893.284352c-281.345024 0-509.877248-228.242432-509.877248-509.771776 0-281.412608 228.532224-509.4912 509.877248-509.4912 281.556992 0 509.771776 228.077568 509.771776 509.4912C1022.150656 665.04192 793.935872 893.284352 512.37888 893.284352zM791.022592 255.69484799999998c-56.172544-119.337984-241.476608-177.417216-378.761216-166.668288-130.505728 10.27072-298.285056 53.576704-315.625472 211.510272 0 0-9.15968 71.514112 60.17024 164.061184 0 0 99.720192 139.293696 215.906304 179.028992 116.251648 39.576576 129.792-27.398144 129.792-66.947072-6.167552-33.56672-17.723392-53.28896 25.91744-39.734272 0 0 114.251776 52.99712 161.293312 5.983232 37.935104-37.986304 6.274048-90.164224 6.274048-90.164224s-15.751168-17.444864 16.623616-23.745536C745.095168 422.559744 847.223808 375.25299199999995 791.022592 255.69484799999998zM678.358016 585.467904c-12.442624 0-22.421504 10.059776-22.421504 22.39488 0 12.54912 9.97888 22.607872 22.421504 22.607872 0 0 140.063744 25.916416 123.332608-124.630016 0-0.899072-0.106496-1.589248-0.29184-2.382848-1.588224-10.642432-10.957824-18.82112-22.024192-18.82112-12.468224 0-22.607872 9.979904-22.607872 22.421504C756.767744 507.058176 778.97728 607.6508160000001 678.358016 585.467904zM914.965504 480.480256c-3.68128-54.214656-16.360448-35.233792-31.396864-35.233792-17.999872 0-32.560128 9.079808-32.560128 27.107328 0 15.644672 6.458368 28.7488 6.458368 28.7488 1.906688 6.592512 17.155072 46.061568-10.057728 107.131904-49.794048 83.678208-150.122496 84.207616-161.982464 79.41632-11.964416-4.658176-29.594624-7.411712-29.594624-7.411712-18.132992 0-32.6656 14.480384-32.6656 32.401408 0 15.03744 10.057728 27.505664 23.795712 31.39584 0 0 0.319488 0.054272 0.7936 0.15872 1.006592 0.211968 2.013184 0.370688 3.125248 0.477184 13.924352 2.700288 63.7184 21.758976 112.161792 10.42944 86.669312-20.224 205.632512-111.977472 152.109056-274.620416L914.965504 480.48128zM422.426624 456.814592c-136.30464-6.247424-246.46656-79.258624-246.46656-170.307584 0-90.957824 110.162944-159.309824 246.46656-152.956928 136.383488 6.196224 246.772736 91.593728 246.772736 182.500352C669.19936 406.940672 558.810112 463.115264 422.426624 456.814592zM515.263488 227.79084799999998c-41.732096-53.894144-124.324864-80.1536-204.522496-36.742144-38.146048 20.703232-36.769792 61.361152-36.769792 61.361152s-15.828992 128.428032 121.2416 144.446464C532.497408 412.817408 557.011968 281.68806400000005 515.263488 227.79084799999998z" horiz-adv-x="1024"/>
<glyph glyph-name="qzone" unicode="" d="M997.866 524.5609999999999c0 10.62 0 13.789-10.62 13.789h-286.747l-42.508 75.803-116.795 224.586c-10.65 0-10.65 0-21.268 0l-106.178-224.586-42.503-75.803h-349.801v-16.988l68.69-42.503 172.441-148.766-35.948-340.033c0-10.62 3.277-10.62 24.511-10.62l277.787 170.017 276.927-170.017c10.649 0 11.045 0 21.665 10.62l-52.891 340.033 159.399 139.756 63.84 54.714zM296.922 206.52599999999995l307.985 250.548-286.75 48.675h435.433l-265.514-239.93 276.129-59.295h-467.284z" horiz-adv-x="1024"/>
<glyph glyph-name="weixin" unicode="" d="M296.512 807.0606666666666c-302.228-53.98-402.972-395.441-162.57-551.734 13.181-8.474 13.181-7.532-6.595-66.534l-16.947-50.527 121.772 65.277 32.328-7.844c33.892-8.476 77.204-14.438 106.076-14.438l17.262 0-5.965 22.912c-47.391 174.495 116.434 347.423 329.536 347.423l28.874 0-5.965 20.713c-46.764 163.51-244.165 269.274-437.806 234.752zM270.149 654.2216666666667c32.01-21.658 33.894-68.421 3.136-88.504-49.897-32.64-108.273 24.794-74.693 73.754 14.751 21.967 50.214 29.184 71.557 14.751zM527.501 654.2216666666667c52.726-35.466 13.181-117.379-45.824-94.779-42.68 16.32-47.703 75.005-7.846 96.033 15.693 8.471 40.172 7.844 53.67-1.254zM643.935 524.9156666666667c-149.701-27.305-253.586-140.915-247.621-271.473 7.846-174.812 212.787-295.324 409.562-241.344l23.222 6.277 48.963-26.365c26.99-14.751 49.587-25.421 50.212-24.161 0.632 1.567-4.705 20.401-11.61 42.053-15.69 48.333-16.008 44.882 5.023 59.945 236.634 169.789 28.874 510.618-277.75 455.068zM637.972 384.00066666666663c13.176-8.788 20.086-30.758 14.433-46.764-11.922-34.207-63.078-36.718-76.892-3.766-15.69 37.975 27.622 73.129 62.459 50.529zM847.619 380.2346666666667c20.713-19.771 17.262-53.353-6.904-65.905-37.033-18.826-75.95 18.826-56.804 54.922 12.549 23.224 44.874 28.872 63.708 10.982z" horiz-adv-x="1025"/>
<glyph glyph-name="trash-o" unicode="" d="M959.34602 677.798819c-3.071904 50.23843-44.382613 90.109184-95.35702 90.109184l-95.997 0 0 31.999L767.992 799.971001c0 53.022343-43.006656 95.997-95.997 95.997L352.005 895.968001c-53.022343 0-95.997-42.974657-95.997-95.997l0-0.031999 0-31.999L160.011 767.940002c-51.038405 0-92.317115-39.870754-95.389019-90.109184L64.014 677.830818l0-37.854817 0-31.999c0-35.326896 28.671104-63.998 63.998-63.998l0 0 0-543.983001c0-70.685791 57.310209-127.996 127.996-127.996l511.984 0c70.685791 0 127.996 57.310209 127.996 127.996l0 543.983001 0 0c35.326896 0 63.998 28.671104 63.998 63.998l0 31.999L959.986 677.798819 959.34602 677.798819zM320.006 799.939002c0 17.695447 14.303553 31.999 31.999 31.999l319.99 0c17.695447 0 31.999-14.303553 31.999-31.999l0-31.999L320.006 767.940002 320.006 799.939002zM831.99-0.035998999999947046c0-35.262898-28.735102-63.998-63.998-63.998L256.008-64.033999c-35.294897 0-63.998 28.735102-63.998 63.998l0 543.983001 639.980001 0L831.99-0.035998999999947046zM895.988 639.976001l0-31.999L128.012 607.977001l0 31.999L128.012 671.943002c0 17.695447 14.303553 31.999 31.999 31.999l703.978001 0c17.695447 0 31.999-14.303553 31.999-31.999L895.988 639.976001zM288.007-0.1639949999999999l63.998 0c17.695447 0 31.999 14.303553 31.999 31.999l0 415.987c0 17.695447-14.303553 31.999-31.999 31.999L288.007 479.821006c-17.695447 0-31.999-14.303553-31.999-31.999l0-415.987C256.008 14.139557999999965 270.311553-0.1639949999999999 288.007-0.1639949999999999zM288.007 447.854005l63.998 0 0-415.987L288.007 31.86700399999995 288.007 447.854005zM480.001-0.1639949999999999l63.998 0c17.695447 0 31.999 14.303553 31.999 31.999l0 415.987c0 17.695447-14.303553 31.999-31.999 31.999l-63.998 0c-17.695447 0-31.999-14.303553-31.999-31.999l0-415.987C448.002 14.139557999999965 462.305553-0.1639949999999999 480.001-0.1639949999999999zM480.001 447.854005l63.998 0 0-415.987-63.998 0L480.001 447.854005zM671.995-0.1639949999999999l63.998 0c17.695447 0 31.999 14.303553 31.999 31.999l0 415.987c0 17.695447-14.303553 31.999-31.999 31.999l-63.998 0c-17.695447 0-31.999-14.303553-31.999-31.999l0-415.987C639.996 14.139557999999965 654.299553-0.1639949999999999 671.995-0.1639949999999999zM671.995 447.854005l63.998 0 0-415.987-63.998 0L671.995 447.854005z" horiz-adv-x="1024"/>
<glyph glyph-name="user" unicode="" d="M941.1047615999998 93.7572576q0-73.1428576-44.50986666666667-115.5072t-118.23786666666666-42.3643424l-532.7140575999999 0q-73.76700906666666 0-118.23786666666666 42.3643424t-44.50986666666667 115.5072q0 32.29988586666666 2.145524266666667 63.078399999999995t8.543085866666667 66.4332192 16.1499424 66.1211424 26.2144 59.41150506666667 37.800228266666664 49.3860576 52.116724266666665 32.6119616 67.95459093333334 12.209980799999999q5.500342399999999 0 25.590247466666664-13.1072t45.40708586666666-29.257142400000003 65.80906666666667-29.257142400000003 81.37386666666666-13.1072 81.37386666666666 13.1072 65.80906666666667 29.257142400000003 45.40708586666666 29.257142400000003 25.590247466666664 13.1072q37.17607573333333 0 67.95459093333334-12.209980799999999t52.116724266666665-32.6119616 37.800228266666664-49.3860576 26.2144-59.41150506666667 16.1499424-66.1211424 8.543085866666667-66.4332192 2.145524266666667-63.078399999999995zM746.0571424 638.0571424q0-96.8996576-68.5787424-165.4784t-165.4784-68.5787424-165.4784 68.5787424-68.5787424 165.4784 68.5787424 165.4784 165.4784 68.5787424 165.4784-68.5787424 68.5787424-165.4784z" horiz-adv-x="1024"/>
<glyph glyph-name="close" unicode="" d="M577.3070692492468 384l424.37026291985444 424.37026291985444c18.04868195571943 18.04868195571943 18.04868195571943 47.2583872935272 0 65.30706924924664-18.04868195571943 18.04868195571943-47.2583872935272 18.04868195571943-65.30706924924664 0L512 449.3070692492466 87.62973708014562 873.6270572890014c-18.04868195571943 18.04868195571943-47.2583872935272 18.04868195571943-65.30706924924664 0-18.04868195571943-18.04868195571943-18.04868195571943-47.2583872935272 0-65.30706924924664L446.6929307507534 384l-424.37026291985444-424.37026291985444c-18.04868195571943-18.04868195571943-18.04868195571943-47.2583872935272 0-65.30706924924664 18.04868195571943-18.04868195571943 47.2583872935272-18.04868195571943 65.30706924924664 0L512 318.69293075075325l424.37026291985444-424.37026291985444c18.04868195571943-18.04868195571943 47.2583872935272-18.04868195571943 65.30706924924664 0 18.04868195571943 18.04868195571943 18.04868195571943 47.2583872935272 0 65.30706924924664L577.3070692492468 384z" horiz-adv-x="1024"/>
<glyph glyph-name="list-alt" unicode="" d="M219.429 123.429v-36.571q0-7.424-5.413-12.873t-12.873-5.413h-36.571q-7.424 0-12.873 5.413t-5.413 12.873v36.571q0 7.424 5.413 12.873t12.873 5.413h36.571q7.424 0 12.873-5.413t5.413-12.873zM219.429 269.714v-36.571q0-7.424-5.413-12.873t-12.873-5.413h-36.571q-7.424 0-12.873 5.413t-5.413 12.873v36.571q0 7.424 5.413 12.873t12.873 5.413h36.571q7.424 0 12.873-5.413t5.413-12.873zM219.429 416v-36.571q0-7.424-5.413-12.873t-12.873-5.413h-36.571q-7.424 0-12.873 5.413t-5.413 12.873v36.571q0 7.424 5.413 12.873t12.873 5.413h36.571q7.424 0 12.873-5.413t5.413-12.873zM877.714 123.429v-36.571q0-7.424-5.413-12.873t-12.873-5.413h-548.571q-7.424 0-12.873 5.413t-5.413 12.873v36.571q0 7.424 5.413 12.873t12.873 5.413h548.571q7.424 0 12.873-5.413t5.413-12.873zM877.714 269.714v-36.571q0-7.424-5.413-12.873t-12.873-5.413h-548.571q-7.424 0-12.873 5.413t-5.413 12.873v36.571q0 7.424 5.413 12.873t12.873 5.413h548.571q7.424 0 12.873-5.413t5.413-12.873zM877.714 416v-36.571q0-7.424-5.413-12.873t-12.873-5.413h-548.571q-7.424 0-12.873 5.413t-5.413 12.873v36.571q0 7.424 5.413 12.873t12.873 5.413h548.571q7.424 0 12.873-5.413t5.413-12.873zM950.857 13.714v475.429q0 7.424-5.413 12.873t-12.873 5.413h-841.143q-7.424 0-12.873-5.413t-5.413-12.873v-475.429q0-7.424 5.413-12.873t12.873-5.413h841.143q7.424 0 12.873 5.413t5.413 12.873zM1024 635.429v-621.714q0-37.705-26.843-64.585t-64.585-26.843h-841.143q-37.705 0-64.585 26.843t-26.843 64.585v621.714q0 37.705 26.843 64.585t64.585 26.843h841.143q37.705 0 64.585-26.843t26.843-64.585z" horiz-adv-x="1025"/>
<glyph glyph-name="print" unicode="" d="M255.98183-65.714286l512 0 0 146.285714-512 0 0-146.285714zM255.98183 300l512 0 0 219.428571-91.428571 0q-22.857143 0-38.838857 16.018286t-16.018286 38.838857l0 91.428571-365.714286 0 0-365.714286zM914.267544 263.428571q0 14.848-10.861714 25.709714t-25.709714 10.861714-25.709714-10.861714-10.861714-25.709714 10.861714-25.709714 25.709714-10.861714 25.709714 10.861714 10.861714 25.709714zM987.410402 263.428571l0-237.714286q0-7.424-5.412571-12.873143t-12.873143-5.412571l-128 0 0-91.428571q0-22.857143-16.018286-38.838857t-38.838857-16.018286l-548.571429 0q-22.857143 0-38.838857 16.018286t-16.018286 38.838857l0 91.428571-128 0q-7.424 0-12.873143 5.412571t-5.412571 12.873143l0 237.714286q0 45.129143 32.292571 77.421714t77.421714 32.292571l36.571429 0 0 310.857143q0 22.857143 16.018286 38.838857t38.838857 16.018286l384 0q22.857143 0 50.285714-11.446857t43.446857-27.428571l86.857143-86.857143q16.018286-16.018286 27.428571-43.446857t11.446857-50.285714l0-146.285714 36.571429 0q45.129143 0 77.421714-32.292571t32.292571-77.421714z" horiz-adv-x="1024"/>
<glyph glyph-name="question" unicode="" d="M512 56.319999999999936c-50.06222222222222 0-91.02222222222221-40.96-91.02222222222221-91.02222222222221s40.96-91.02222222222221 91.02222222222221-91.02222222222221 91.02222222222221 40.96 91.02222222222221 91.02222222222221S562.0622222222222 56.319999999999936 512 56.319999999999936zM717.4257777777777 808.6345955555555C662.5541688888889 863.5050666666666 589.59872 893.7244444444444 512 893.7244444444444c-77.59985777777777 0-150.55416888888888-30.219377777777776-205.42463999999995-85.08984888888888-54.871608888888886-54.871608888888886-85.08984888888888-127.82592-85.08984888888888-205.42463999999995 0-40.21589333333333 32.601884444444444-72.81777777777778 72.81777777777778-72.81777777777778s72.81777777777778 32.601884444444444 72.81777777777778 72.81777777777778C367.1210666666667 683.0967466666666 432.1132088888889 748.0888888888888 512 748.0888888888888s144.87893333333332-64.99214222222221 144.87893333333332-144.87779555555556c0-35.87640888888889-8.520817777777777-62.12721777777778-53.471004444444446-98.04458666666666-51.93728-41.50158222222222-148.61311999999998-118.75214222222222-163.08565333333328-259.34506666666664-4.1187555555555555-40.004266666666666 24.973084444444446-75.77372444444444 64.97848888888889-79.89134222222222 2.5349688888888893-0.2605511111111111 5.051733333333334-0.38912 7.5446044444444444-0.38912 36.86513777777778 0 68.48967111111111 27.89717333333333 72.34673777777776 65.36647111111111 3.5350755555555557 34.34609777777778 16.264533333333333 65.11388444444444 38.91427555555554 94.06464000000001 21.526755555555557 27.514879999999998 48.52167111111111 49.08714666666666 70.21454222222222 66.41891555555556 74.82595555555555 59.79022222222221 108.19356444444445 125.11800888888888 108.19356444444445 211.8189511111111C802.514488888889 680.8098133333333 772.295111111111 753.7641244444444 717.4257777777777 808.6345955555555z" horiz-adv-x="1024"/>
<glyph glyph-name="plus-square-o" unicode="" d="M2.8580977777778003 893.1419022222221l0-1018.2838044444444 1018.2838044444444 0 0 1018.2838044444444L2.8580977777778003 893.1419022222221zM908.0762823111111-12.076282311111072l-792.1525646222221 0 0 792.1525646222221 792.1525646222221 0L908.0762823111111-12.076282311111072zM455.46660750222225 101.16177009777766L568.5345575822223 101.16177009777766 568.5345575822223 327.4654424177777 794.8382299022223 327.4654424177777 794.8382299022223 440.53455758222225 568.5345575822223 440.53455758222225 568.5345575822223 666.8382299022222 455.46660750222225 666.8382299022222 455.46660750222225 440.53455758222225 229.1629351822222 440.53455758222225 229.1629351822222 327.4654424177777 455.46660750222225 327.4654424177777Z" horiz-adv-x="1024"/>
<glyph glyph-name="caret-bottom" unicode="" d="M0 640l512-512 512 512-1024 0z" horiz-adv-x="1024"/>
<glyph glyph-name="luntan" unicode="" d="M287.548509 569.169261c-62.625358 0-113.580218 50.979685-113.580218 113.639176C173.968291 745.486545 224.923152 796.484848 287.548509 796.484848c62.622255 0 113.577115-50.998303 113.577115-113.676412C401.125624 620.148945 350.170764 569.169261 287.548509 569.169261zM287.548509 724.873115c-23.179636 0-42.027442-18.863321-42.027442-42.064679 0-23.182739 18.847806-42.030545 42.027442-42.030545s42.027442 18.847806 42.027442 42.030545C329.575952 706.009794 310.728145 724.873115 287.548509 724.873115zM675.377648 569.169261c-62.643976 0-113.617455 50.979685-113.617455 113.639176C561.760194 745.486545 612.736776 796.484848 675.377648 796.484848c62.603636 0 113.542982-50.998303 113.542982-113.676412C788.92063 620.148945 737.981285 569.169261 675.377648 569.169261zM675.377648 724.873115c-23.201358 0-42.064679-18.863321-42.064679-42.064679 0-23.182739 18.863321-42.030545 42.064679-42.030545 23.161018 0 41.987103 18.847806 41.987103 42.030545C717.367855 706.009794 698.538667 724.873115 675.377648 724.873115zM78.785939 274.058667 15.515152 337.341867 201.690764 523.747103 346.571248 523.747103 467.679418 428.518206 412.411345 358.13217 315.652655 434.233988 238.759564 434.233988ZM881.729164 274.058667 721.755539 434.233988 644.893479 434.233988 548.137891 358.13217 492.866715 428.518206 613.974885 523.747103 758.821236 523.747103 944.999952 337.341867ZM179.417212-196.484848c-99.743806 7.133867-123.481988 106.769067-122.557285 158.465552L56.859927 295.246158l89.438642 0 0-334.069139c0-1.225697-0.052752-65.613576 36.367515-68.272873l570.476606 0.121018c13.364752 0.7168 62.972897 6.767709 61.10177 52.661527l0.037236 360.029091 89.432436-0.034133-0.065164-358.173479c1.498764-35.84-10.063127-69.098279-33.45377-94.356945-42.3936-45.7728-108.128194-49.3568-115.479273-49.598836L179.417212-196.484848z" horiz-adv-x="1024"/>
<glyph glyph-name="star-o" unicode="" d="M694.5081610666666 276.59378133333337l186.38908373333334 180.89870506666665-257.0545173333333 37.76682026666666-115.1123968 232.68072746666667-115.123312-232.68072746666667-257.0436021333333-37.76682026666666 186.37816853333334-180.89870506666665-44.4578784-256.44217066666664 230.24662293333333 121.21402986666666 229.63536853333332-121.21402986666666L694.5081610666666 276.59378133333337zM1015.5043072000001 494.03679786666663c0-9.136077866666666-5.4805546666666665-18.88341013333333-15.839142399999998-29.23108266666667L778.5666261333333 249.17463253333335l52.382361599999996-304.54683946666665c0.6003392000000001-3.045358933333333 0.6003392000000001-6.701973333333333 0.6003392000000001-12.192352 0-20.095004799999998-8.5248224-30.45359253333333-24.963213866666667-30.45359253333333-7.9244832 0-15.838051199999999 2.4450197333333334-24.3737888 7.3132288l-273.4819925333333 143.7540544-273.49290773333337-143.7540544c-9.136077866666666-4.868209066666666-17.060561066666665-7.3132288-24.3628736-7.3132288-17.060561066666665 0-25.585383466666666 13.403946666666666-25.585383466666666 30.45359253333333l1.2115946666666666 12.192352 52.393277866666665 304.54683946666665L17.17223786666665 464.80680639999997c-10.358587733333334 10.958926933333334-15.226795733333333 20.706260266666668-15.226795733333333 29.23108266666667 0 15.226795733333333 11.5701824 24.3737888 34.11020693333333 28.019488l305.76934933333337 44.46879466666667 137.05208106666666 277.14952213333333c15.226795733333333 33.49895146666667 44.46879466666667 33.49895146666667 59.6955904 0l137.05317333333332-277.14952213333333 305.76934933333337-44.46879466666667C1003.9330336 518.4116789333333 1015.5043072000001 509.2646858666667 1015.5043072000001 494.03679786666663z" horiz-adv-x="1024"/>
<glyph glyph-name="spinner" unicode="" d="M385.024 765.7813333333334C385.024 838.144 443.73333333333335 896.8533333333334 516.096 896.8533333333334s131.072-58.70933333333333 131.072-131.072-58.70933333333333-131.072-131.072-131.072S385.024 693.4186666666667 385.024 765.7813333333334zM663.0968888888888 650.6382222222222c0 72.36266666666667 58.70933333333333 131.072 131.072 131.072s131.072-58.70933333333333 131.072-131.072S866.5315555555555 519.5662222222222 794.1688888888889 519.5662222222222 663.0968888888888 578.2755555555555 663.0968888888888 650.6382222222222zM843.7759999999998 372.56533333333346c0 36.181333333333335 29.354666666666667 65.536 65.536 65.536s65.536-29.354666666666667 65.536-65.536-29.354666666666667-65.536-65.536-65.536C873.1306666666667 307.0293333333334 843.7759999999998 336.384 843.7759999999998 372.56533333333346zM728.6328888888888 94.49244444444446c0 36.181333333333335 29.354666666666667 65.536 65.536 65.536s65.536-29.354666666666667 65.536-65.536-29.354666666666667-65.536-65.536-65.536S728.6328888888888 58.311111111111245 728.6328888888888 94.49244444444446zM450.55999999999995-20.650666666666552c0 36.181333333333335 29.354666666666667 65.536 65.536 65.536s65.536-29.354666666666667 65.536-65.536S552.2773333333333-86.18666666666661 516.096-86.18666666666661 450.55999999999995-56.831999999999994 450.55999999999995-20.650666666666552zM172.48711111111118 94.49244444444446c0 36.181333333333335 29.354666666666667 65.536 65.536 65.536s65.536-29.354666666666667 65.536-65.536-29.354666666666667-65.536-65.536-65.536S172.48711111111118 58.311111111111245 172.48711111111118 94.49244444444446zM139.71911111111115 650.6382222222222c0 54.272 44.032 98.30400000000002 98.30400000000002 98.30400000000002s98.30400000000002-44.032 98.30400000000002-98.30400000000002-44.032-98.30400000000002-98.30400000000002-98.30400000000002S139.71911111111115 596.3662222222222 139.71911111111115 650.6382222222222zM49.15199999999999 372.56533333333346c0 40.73244444444444 32.995555555555555 73.728 73.728 73.728s73.728-32.995555555555555 73.728-73.728-32.995555555555555-73.728-73.728-73.728S49.15199999999999 331.8328888888889 49.15199999999999 372.56533333333346z" horiz-adv-x="1024"/>
<glyph glyph-name="tips" unicode="" d="M527.808 804.288L272 640 144.384 640C73.472 640 16 583.232 16 512.1279999999999l0-256.256C16 185.216 72.768 128 144.384 128L272 128l255.808-164.16c36.16-15.68 64.192 1.088 64.192 36.672L592 767.616C592 803.264 563.264 819.5840000000001 527.808 804.288zM743.36 597.8240000000001c-12.032 12.928-32.32 13.632-45.184 1.536-12.928-12.096-13.568-32.32-1.536-45.248 5.952-6.4 16.128-20.544 26.624-41.92C741.184 475.712 752 432.896 752 384s-10.816-91.776-28.736-128.192c-10.496-21.376-20.672-35.52-26.624-41.92-12.096-12.928-11.392-33.152 1.536-45.248 12.928-12.096 33.152-11.392 45.248 1.536 10.048 10.752 23.872 29.952 37.312 57.408 22.08 44.928 35.264 97.28 35.264 156.48s-13.184 111.552-35.264 156.48C767.232 567.8720000000001 753.408 587.136 743.36 597.8240000000001zM939.584 637.44c-25.856 43.776-51.968 74.112-70.272 90.432-13.184 11.776-33.408 10.624-45.184-2.624s-10.624-33.408 2.624-45.184c3.008-2.688 9.024-8.704 17.088-18.048 13.824-16 27.648-35.072 40.64-57.088C921.664 541.8240000000001 944 468.032 944 384s-22.336-157.824-59.584-220.992c-12.992-22.016-26.88-41.088-40.64-57.088-8.064-9.344-14.08-15.36-17.088-18.048-13.184-11.776-14.336-32-2.624-45.184s32-14.336 45.184-2.624c18.304 16.32 44.416 46.592 70.272 90.432C982.272 203.00800000000004 1007.936 287.808 1007.936 384 1008 480.128 982.336 564.928 939.584 637.44z" horiz-adv-x="1024"/>
<glyph glyph-name="mobile" unicode="" d="M675.624 833.010h-327.573c-40.995 0-74.458-33.544-74.458-74.454v-744.691c0-40.953 33.464-74.459 74.458-74.459h327.573c40.959 0 74.461 33.506 74.461 74.459l-0 744.691c0 40.91-33.501 74.454-74.461 74.454v0zM467.151 773.463h89.378c8.226 0 14.944-6.68 14.944-14.907 0-8.271-6.718-14.907-14.944-14.907h-89.377c-8.19 0-14.828 6.635-14.828 14.907-0.001 8.225 6.637 14.907 14.827 14.907v0zM511.803-30.78c-24.659 0-44.691 19.952-44.691 44.646 0 24.687 20.032 44.72 44.691 44.72 24.765 0 44.72-20.032 44.72-44.72 0.001-24.693-19.953-44.646-44.72-44.646v0zM720.385 88.324h-416.977l0 595.774h416.977l-0-595.774zM720.385 88.324z" horiz-adv-x="1024"/>
<glyph glyph-name="weibo" unicode="" d="M752.8903114666666 394.8316448c-38.957511466666666 7.736888533333333-20.024888533333336 29.21813333333333-20.024888533333336 29.21813333333333s38.092800000000004 64.3072-7.5548448 111.09262186666666c-56.570311466666666 57.9356448-194.05937813333333-7.3728-194.05937813333333-7.3728-52.51982186666667-16.702578133333333-38.59342186666667 7.6003552-31.175111466666664 48.969955199999994 0 48.742399999999996-16.292978133333335 131.20853333333332-156.14862186666664 82.46613333333333-139.71911146666667-48.969955199999994-259.6864-220.5468448-259.6864-220.5468448-83.42186666666666-114.00533333333333-72.40817813333334-202.1148448-72.40817813333334-202.1148448 20.844088533333334-194.51448853333335 222.68586666666667-247.94453333333334 379.6992-260.55111146666667 165.15982186666668-13.2892448 388.0732448 58.29973333333333 455.7027552 205.34613333333334C914.8188448 328.56746666666675 791.9843552 386.86719999999997 752.8903114666666 394.8316448zM403.7745781333333 30.833778133333226c-163.97653333333335-7.8279114666666665-296.50488853333337 76.3676448-296.50488853333337 188.416 0 112.18488853333334 132.57386666666667 202.1148448 296.50488853333337 209.85173333333333 164.0675552 7.736888533333333 296.8689781333333-61.48551146666667 296.8689781333333-173.4428448C700.6435552 143.61031146666664 567.8421333333333 38.43413333333342 403.7745781333333 30.833778133333226zM371.05208853333335 355.19146666666666c-164.93226666666666-19.751821866666667-145.86311146666668-177.94844479999998-145.86311146666668-177.94844479999998s-1.6839114666666666-50.10773333333333 44.2368-75.5939552c96.4835552-53.52106666666667 195.83431146666666-21.1171552 246.07857813333334 45.2835552C565.7031114666667 213.33333333333337 536.2119114666667 374.8067552 371.05208853333335 355.19146666666666zM329.4549333333333 133.18826666666666c-30.811021866666664-3.6864-55.61457813333333 14.472533333333333-55.61457813333333 40.868978133333336 0 26.259911466666665 22.027378133333332 53.74862186666667 52.8384 57.07093333333333 35.36213333333333 3.4588448 58.390755199999994-17.4307552 58.390755199999994-43.8272C385.06951146666665 161.04106666666667 360.1294218666667 136.73813333333328 329.4549333333333 133.18826666666666zM426.6666666666667 217.97546666666665c-10.4220448-7.9644448-23.256178133333332-6.872178133333334-28.763021866666666 2.6851551999999996-5.7344 9.329778133333333-3.5953781333333334 24.302933333333332 6.9632 32.1763552 12.242488533333333 9.329778133333333 24.940088533333334 6.644621866666666 30.446933333333334-2.7306666666666666C440.82062186666667 240.54897813333332 436.86115520000004 226.2129781333333 426.6666666666667 217.97546666666665zM833.2174218666667 463.3258666666667c13.2892448 0 24.576 10.0579552 26.487466666666666 23.21066666666667 0.22755519999999999 1.0012448 0.36408853333333335 1.8204448 0.36408853333333335 2.958221866666667 20.161421866666668 185.45777813333333-148.36622186666668 153.50897813333333-148.36622186666668 153.50897813333333-14.9731552 0-26.94257813333333-12.379021866666667-26.94257813333333-27.8528 0-15.200711466666666 12.014933333333332-27.6252448 26.94257813333333-27.6252448 121.0595552 27.352178133333332 94.34453333333333-96.57457813333333 94.34453333333333-96.57457813333333C806.0017781333333 475.61386666666664 818.1987552 463.3258666666667 833.2174218666667 463.3258666666667zM813.5566218666667 787.0008885333334c-58.25422186666666 13.971911466666667-118.19235520000001 1.9114666666666666-134.9859552-1.3653333333333333-1.3198218666666666-0.13653333333333334-2.5031114666666667-1.3653333333333333-3.6864-1.6384-0.5916448-0.13653333333333334-0.9557333333333333-0.7281781333333334-0.9557333333333333-0.7281781333333334-16.5660448-4.778666666666667-28.671999999999997-20.48-28.671999999999997-39.00302186666667 0-22.072888533333334 17.476266666666668-40.27733333333333 39.3216-40.27733333333333 0 0 21.208178133333334 2.9127114666666665 35.58968853333333 8.692621866666666 14.244978133333332 5.8709333333333324 134.9404448 4.369066666666667 194.87857813333332-98.7136 32.72248853333333-75.22986666666667 14.381511466666666-125.56515519999999 12.1059552-133.66613333333333 0 0-7.7824-19.569778133333333-7.7824-38.77546666666666 0-22.209421866666666 17.52177813333333-36.181333333333335 39.185066666666664-36.181333333333335 18.113421866666666 0 33.3596448 2.5486218666666667 37.774221866666664 33.905778133333335l0.22755519999999999 0C1060.9095114666668 658.8871114666667 917.8225781333333 762.1063114666667 813.5566218666667 787.0008885333334z" horiz-adv-x="1024"/>
<glyph glyph-name="desktop" unicode="" d="M950.9 738.9 73.1 738.9C32.7 738.9 0 706.1 0 665.6l0-585.9c0-40.5 32.7-73.2 73.1-73.2l329.1 0 0-72.1-73.1 0c-20.2 0-36.6-16.4-36.6-36.6 0-20.2 16.4-36.6 36.6-36.6l365.7 0c20.2 0 36.6 16.4 36.6 36.6 0 20.2-16.4 36.6-36.6 36.6l-73.1 0 0 72.1 329.1 0c40.4 0 73.1 32.8 73.1 73.2L1023.9 665.6C1024 706.1 991.3 738.9 950.9 738.9zM950.9 101.4c0-12.6-10.2-22.9-22.9-22.9L96 78.5c-12.6 0-22.9 10.2-22.9 22.9L73.1 641.6c0 12.6 10.2 22.9 22.9 22.9l832 0c12.6 0 22.9-10.2 22.9-22.9L950.9 101.4 950.9 101.4z" horiz-adv-x="1024"/>
<glyph glyph-name="circle-question-o" unicode="" d="M512 895.7C229.4 895.7 0.3 666.6 0.3 384s229.1-511.8 511.7-511.8c282.6 0 511.8 229.1 511.8 511.8S794.6 895.7 512 895.7zM512-54.60000000000002C269.7-54.60000000000002 73.4 141.70000000000005 73.4 384S269.7 822.6 512 822.6 950.6 626.3 950.6 384 754.3-54.60000000000002 512-54.60000000000002zM466.3 137.29999999999995c0-25.2 20.5-45.7 45.7-45.7 25.2 0 45.7 20.5 45.7 45.7 0 25.2-20.5 45.7-45.7 45.7C486.8 183 466.3 162.5 466.3 137.29999999999995zM512 676.4c-91.4 0-164.5-73.2-164.5-164.6 0-16.6 14.4-29.9 31-29.9 16.6 0 31 13.3 31 29.9 0 56.5 44.2 98.5 100.7 98.5 56.5 0 100.7-42 100.7-98.5 0-46.6-33.8-78.2-63.7-96.5-59.8-36.6-71.5-88.1-69.8-114.8l0-51.7c0-16.6 11.6-29.4 30.6-29.4 19 0 30.4 12.7 30.4 29.4l0 53.4c0 1.7-1.7 36.6 43.2 63.2 61.5 36.6 94.7 89.8 94.7 148C676.5 604.9 603.4 676.4 512 676.4z" horiz-adv-x="1024"/>
<glyph glyph-name="exclamation-circle-l" unicode="" d="M512 896C229.2 896 0 666.8 0 384s229.2-512 512-512c282.8 0 512 229.2 512 512S794.8 896 512 896zM512 90.29999999999995c-20.2 0-36.6 16.4-36.6 36.6 0 20.2 16.4 36.6 36.6 36.6 20.2 0 36.6-16.4 36.6-36.6C548.6 106.70000000000005 532.2 90.29999999999995 512 90.29999999999995zM548.6 274.29999999999995c0-20.2-16.4-36.6-36.6-36.6-20.2 0-36.6 16.4-36.6 36.6L475.4 640c0 20.2 16.4 36.6 36.6 36.6 20.2 0 36.6-16.4 36.6-36.6L548.6 274.29999999999995 548.6 274.29999999999995z" horiz-adv-x="1024"/>
<glyph glyph-name="lock" unicode="" d="M785.0666666666666 566.0444448000001l-45.51111146666666 0L739.5555552000001 657.0666666666666c0 125.61066666666667-101.94488853333334 227.55555520000001-227.55555520000001 227.55555520000001S284.44444480000004 782.6773333333333 284.44444480000004 657.0666666666666l0-91.02222186666665L238.93333333333334 566.0444448000001c-50.06222186666666 0-91.02222186666665-40.96-91.02222186666665-91.02222186666665l0-455.11111146666667c0-50.06222186666666 40.96-91.02222186666665 91.02222186666665-91.02222186666665l546.1333333333333 0c50.06222186666666 0 91.02222186666665 40.96 91.02222186666665 91.02222186666665L876.0888885333334 475.02222186666665C876.0888885333334 525.0844448 835.1288885333333 566.0444448000001 785.0666666666666 566.0444448000001zM512 156.44444479999993c-50.06222186666666 0-91.02222186666665 40.96-91.02222186666665 91.02222186666665s40.96 91.02222186666665 91.02222186666665 91.02222186666665 91.02222186666665-40.96 91.02222186666665-91.02222186666665S562.0622218666666 156.44444479999993 512 156.44444479999993zM653.0844448 566.0444448000001L370.91555520000003 566.0444448000001 370.91555520000003 657.0666666666666c0 77.824 63.260444799999995 141.0844448 141.0844448 141.0844448s141.0844448-63.260444799999995 141.0844448-141.0844448L653.0844448 566.0444448000001z" horiz-adv-x="1024"/>
<glyph glyph-name="times-circle" unicode="" d="M873.521289 746.070292C673.697217 945.8964100000001 349.715405 945.8964100000001 149.89031 746.069269c-199.825095-199.824071-199.825095-523.80486 0-723.630978 199.825095-199.824071 523.806907-199.824071 723.630978 0C1073.347406 222.26338499999997 1073.346383 546.2451980000001 873.521289 746.070292zM783.06716 112.89241900000002c-149.869333-149.870356-392.854413-149.870356-542.723745 0-149.869333 149.868309-149.869333 392.853389 0 542.723745 149.869333 149.868309 392.854413 149.868309 542.723745 0C932.936493 505.746832 932.936493 262.760728 783.06716 112.89241900000002zM647.386992 610.3891L511.706823 474.707908 376.024607 610.3891 285.570479 519.934972 421.251671 384.254803 285.570479 248.572588 376.024607 158.11948299999995 511.706823 293.79965200000004 647.386992 158.11948299999995 737.84112 248.572588 602.159928 384.254803 737.84112 519.934972Z" horiz-adv-x="1024"/>
<glyph glyph-name="sousuo" unicode="" d="M1023.761491-151.747246 963.805549-211.703188 692.434948 59.667412C525.881242-76.781118 279.739627-67.283147 124.295155 88.161325-41.283313 253.739793-41.283313 522.227081 124.295155 687.84795 289.873623 853.384017 558.360911 853.384017 723.939379 687.84795 879.426253 532.361077 888.881822 286.17706 752.39089 119.623354L1023.761491-151.747246ZM663.262609 628.019213C530.715031 760.566791 316.035445 760.736398 183.699876 628.44323 51.406708 496.150062 51.618716 281.428075 184.166294 148.880497 316.713872 16.332919 531.435859 16.120911 663.729027 148.45648 796.022195 280.707246 795.852588 495.471636 663.262609 628.019213Z" horiz-adv-x="1024"/>
<glyph glyph-name="message" unicode="" d="M296.024575 539.469887c30.845519 0 55.825446-25.010627 55.825446-55.825446 0-30.872125-24.979928-55.855122-55.825446-55.855122-30.846542 0-55.855122 24.982998-55.855122 55.855122C240.169453 514.459261 265.179057 539.469887 296.024575 539.469887zM519.439948 539.469887c30.872125 0 55.853076-25.010627 55.853076-55.825446 0-30.872125-24.980951-55.855122-55.853076-55.855122-30.873148 0-55.828516 24.982998-55.828516 55.855122C463.612455 514.459261 488.5668 539.469887 519.439948 539.469887zM742.85532 539.469887c30.816866 0 55.852052-25.010627 55.852052-55.825446 0-30.872125-25.035186-55.855122-55.852052-55.855122-30.872125 0-55.828516 24.982998-55.828516 55.855122C687.026804 514.459261 711.983195 539.469887 742.85532 539.469887zM827.430554 818.764941L196.567399 818.764941c-72.571852 0-131.371026-58.742892-131.371026-131.153062l0-419.776575c0-72.433706 58.799174-131.179668 131.371026-131.179668l262.850523 0 0-183.653787 302.286698 183.653787 65.725934 0c72.54627 0 131.37205 58.745962 131.37205 131.179668L958.802604 687.612902C958.802604 760.022049 899.9758 818.764941 827.430554 818.764941zM903.00274 267.83530399999995c0-41.507346-33.92567-75.325569-75.573209-75.325569l-65.725934 0-15.653515 0-13.33675-8.073886-217.442334-132.163065 0 84.382852 0 55.854099-55.854099 0L196.567399 192.50973399999998c-41.644469 0-75.573209 33.819247-75.573209 75.325569L120.99419 687.612902c0 41.508369 33.927717 75.271334 75.573209 75.271334l630.863155 0c41.646516 0 75.573209-33.762965 75.573209-75.271334L903.003763 267.83530399999995z" horiz-adv-x="1024"/>
<glyph glyph-name="hot-txt" unicode="" d="M946.688 817.2633040000001l-801.391304 0c-12.288 0-22.26087-9.97287-22.26087-22.26087s9.97287-22.26087 22.26087-22.26087l801.391304 0c24.576 0 44.521739-19.945739 44.521739-44.521739l0-712.347826c0-24.576-19.945739-44.521739-44.521739-44.521739l-845.913043 0c-24.576 0-44.521739 19.945739-44.521739 44.521739l0 667.826087c0 12.288-9.97287 22.26087-22.26087 22.26087s-22.26087-9.97287-22.26087-22.26087l0-667.826087c0-49.174261 39.869217-89.043478 89.043478-89.043478l845.913043 0c49.174261 0 89.043478 39.869217 89.043478 89.043478l0 712.347826C1035.731478 777.394087 995.862261 817.2633040000001 946.688 817.2633040000001zM545.992348 127.17634799999996c49.174261 0 89.043478 39.869217 89.043478 89.043478l0 311.652174c0 49.174261-39.869217 89.043478-89.043478 89.043478l-44.521739 0c-49.174261 0-89.043478-39.869217-89.043478-89.043478l0-311.652174c0-49.174261 39.869217-89.043478 89.043478-89.043478L545.992348 127.17634799999996zM456.94887 216.219826l0 311.652174c0 24.576 19.945739 44.521739 44.521739 44.521739l44.521739 0c24.576 0 44.521739-19.945739 44.521739-44.521739l0-311.652174c0-24.576-19.945739-44.521739-44.521739-44.521739l-44.521739 0C476.894609 171.698087 456.94887 191.643826 456.94887 216.219826zM167.557565 616.915478c-12.288 0-22.26087-9.97287-22.26087-22.26087l0-445.217391c0-12.288 9.97287-22.26087 22.26087-22.26087s22.26087 9.97287 22.26087 22.26087l0 200.347826 133.565217 0 0-200.347826c0-12.288 9.97287-22.26087 22.26087-22.26087s22.26087 9.97287 22.26087 22.26087l0 445.217391c0 12.288-9.97287 22.26087-22.26087 22.26087s-22.26087-9.97287-22.26087-22.26087l0-200.347826-133.565217 0 0 200.347826C189.818435 606.96487 179.867826 616.915478 167.557565 616.915478zM790.861913 127.17634799999996c12.288 0 22.26087 9.97287 22.26087 22.26087l0 422.956522 66.782609 0c12.288 0 22.26087 9.97287 22.26087 22.26087s-9.97287 22.26087-22.26087 22.26087l-178.086957 0c-12.288 0-22.26087-9.97287-22.26087-22.26087s9.97287-22.26087 22.26087-22.26087l66.782609 0 0-422.956522C768.601043 137.14921700000002 778.573913 127.17634799999996 790.861913 127.17634799999996z" horiz-adv-x="1036"/>
<glyph glyph-name="envelope" unicode="" d="M1023.936 442.784l0-453.696c0-25.152-8.96-46.656-26.88-64.576-17.856-17.92-39.36-26.88-64.576-26.816L91.456-102.304c-25.152 0-46.656 8.96-64.576 26.816S0-36 0-10.848L0 442.784c16.768-18.688 36.032-35.2 57.728-49.664 137.856-93.696 232.512-159.424 283.968-197.12 21.696-16 39.36-28.48 52.864-37.44s31.552-18.048 54.016-27.456c22.528-9.344 43.456-14.016 62.848-14.016l1.152 0c19.456 0 40.384 4.672 62.848 14.016 22.464 9.344 40.448 18.496 54.016 27.456 13.504 8.96 31.104 21.44 52.8 37.44 64.768 46.848 159.616 112.576 284.544 197.12C988.48 407.968 1007.552 424.544 1023.936 442.784L1023.936 442.784zM1023.936 610.784c0-30.08-9.344-58.816-28.032-86.272-18.688-27.456-41.92-50.88-69.76-70.272-143.168-99.456-232.32-161.344-267.392-185.728-3.84-2.688-11.968-8.448-24.32-17.408S611.84 234.912 603.648 229.344c-8.192-5.504-18.048-11.712-29.696-18.56C562.368 203.936 551.424 198.816 541.12 195.36c-10.304-3.392-19.776-5.12-28.544-5.12L511.424 190.24c-8.768 0-18.24 1.664-28.544 5.12C472.576 198.816 461.632 204 450.048 210.784 438.4 217.696 428.48 223.904 420.288 229.344c-8.192 5.568-18.496 12.8-30.848 21.76-12.416 8.96-20.48 14.72-24.256 17.408C330.496 292.96 280.576 327.712 215.488 372.896c-65.152 45.12-104.192 72.256-117.12 81.408-23.616 16-45.888 37.952-66.816 65.984C10.56 548.32 0.064 574.304 0.064 598.304c0 29.696 7.936 54.464 23.744 74.304 15.808 19.776 38.4 29.696 67.712 29.696l841.088 0c24.832 0 46.208-8.96 64.32-26.816C1014.912 657.504 1024 636 1023.936 610.784L1023.936 610.784zM1023.936 610.784" horiz-adv-x="1024"/>
<glyph glyph-name="yuandian" unicode="" d="M510.653841 748.832332c-247.418043 0-447.995267-200.577225-447.995267-447.995267 0-247.427252 200.577225-448.004477 447.995267-448.004477 247.426229 0 448.004477 200.578248 448.004477 447.99936C958.658318 548.255107 758.08007 748.832332 510.653841 748.832332L510.653841 748.832332 510.653841 748.832332zM510.653841-112.70553c-228.373291 0-413.533384 185.16521-413.533384 413.543617 0 228.372268 185.160093 413.538501 413.533384 413.538501 228.382501 0 413.542594-185.16521 413.542594-413.538501C924.196435 72.45968 739.036341-112.70553 510.653841-112.70553L510.653841-112.70553 510.653841-112.70553zM510.653841-112.70553M510.655887 566.181385c-146.544611 0-265.346367-118.801756-265.346367-265.345344 0-146.549727 118.801756-265.351484 265.346367-265.351484 146.549727 0 265.351484 118.801756 265.351484 265.348414S657.205615 566.181385 510.655887 566.181385L510.655887 566.181385 510.655887 566.181385zM510.655887 55.895423 510.655887 55.895423" horiz-adv-x="1024"/>
<glyph glyph-name="close-l" unicode="" d="M555.467456 384.81826l457.143281 456.95704c12.34618 12.389159 12.344133 32.445945-0.020466 44.942551-12.370739 12.407578-32.554416 12.323667-44.921062 0.063445L511.196194 430.28679 56.286788 885.321039c-12.425998 12.280688-32.424456 12.472047-44.876036 0.040932C-0.978407 872.828526-0.955894 852.833138 11.434288 840.381558l457.097233-457.199563L11.387216-73.77504499999998c-12.34618-12.389159-12.344133-32.445945 0.020466-44.942551 12.370739-12.407578 32.554416-12.323667 44.921062-0.063445L512.802783 337.71346400000004l454.909406-455.035272c12.425998-12.280688 32.424456-12.472047 44.876036-0.040932 12.389159 12.533445 12.366646 32.528833-0.022513 44.980413L555.467456 384.81826z" horiz-adv-x="1024"/>
<glyph glyph-name="search" unicode="" d="M995.5828622222223 27.338524444444374l-200.83143111111113 200.9042488888889c-2.9855288888888887 2.9855288888888887-6.335146666666666 5.2428799999999995-9.46631111111111 7.7186844444444445 43.47221333333333 66.77390222222223 68.88561777777777 146.21809777777776 68.88561777777777 231.85180444444447 0 235.27423999999996-190.63694222222222 425.9839999999999-425.9839999999999 425.9839999999999C192.98531555555553 893.7972622222222 2.27555555555557 703.0875022222222 2.27555555555557 467.8132622222222c0-235.27423999999996 190.78257777777776-425.9839999999999 425.9839999999999-425.9839999999999 85.63370666666667 0 165.22353777777778 25.48622222222222 231.99744 68.95843555555555 2.4758044444444445-3.203982222222222 4.660337777777778-6.4807822222222216 7.645866666666666-9.393493333333334l200.83143111111113-200.9042488888889C886.2833777777778-116.98631111111126 909.14816-125.72444444444443 932.08576-125.72444444444443c22.9376 0 45.8752 8.738133333333334 63.42428444444444 26.2144C1030.4625777777778-64.48469333333333 1030.4625777777778-7.686826666666775 995.5828622222223 27.338524444444374M428.1867377777778 176.39651555555554c-160.63601777777777 0-291.41674666666665 130.7807288888889-291.41674666666665 291.41674666666665 0 160.63601777777777 130.7807288888889 291.41674666666665 291.41674666666665 291.41674666666665 160.63601777777777 0 291.41674666666665-130.7807288888889 291.41674666666665-291.41674666666665C719.6034844444445 307.17724444444445 588.8227555555555 176.39651555555554 428.1867377777778 176.39651555555554" horiz-adv-x="1024"/>
<glyph glyph-name="exclamationtriangle" unicode="" d="M579.026556 279.299403c0-37.09792-30.009478-67.186192-67.048045-67.186192-37.019125 0-67.027579 30.087249-67.027579 67.186192L444.950931 511.396505c0 37.09792 30.009478 67.166749 67.027579 67.166749 37.038568 0 67.048045-30.067806 67.048045-67.166749L579.026556 279.299403zM511.978511 26.545842c-37.019125 0-67.027579 30.067806-67.027579 67.185168 0 37.09792 30.009478 67.166749 67.027579 67.166749 37.038568 0 67.048045-30.067806 67.048045-67.166749C579.026556 56.613648 549.017078 26.545842 511.978511 26.545842M1013.803777-5.314797 547.836183 808.632163c0 0-36.408211 63.582107-72.798003 0L9.071609-5.314797c0 0-36.388768-63.582107 36.763298-63.582107l931.22706 0C977.060945-68.895881 1050.192545-68.895881 1013.803777-5.314797" horiz-adv-x="1024"/>
<glyph glyph-name="arrowleftcircle" unicode="" d="M736 416 397.248 416 529.152 547.84C541.632 560.32 541.632 580.48 529.152 593.28 516.64 605.76 496.384 605.76 483.872 593.28L302.848 412.16C295.2 404.48 292.8 393.92 294.56 384 292.8 374.08 295.2 363.52 302.848 355.84L483.872 174.72C496.384 162.24 516.64 162.24 529.152 174.72 541.632 187.2 541.632 207.68 529.152 220.16L397.248 352 736 352C753.664 352 768 366.4 768 384 768 401.6 753.664 416 736 416L736 416ZM512-64C264.576-64 64 136.64 64 384 64 631.36 264.576 832 512 832 759.424 832 960 631.36 960 384 960 136.64 759.424-64 512-64L512-64ZM512 896C229.248 896 0 666.88 0 384 0 101.12 229.248-128 512-128 794.752-128 1024 101.12 1024 384 1024 666.88 794.752 896 512 896L512 896Z" horiz-adv-x="1024"/>
<glyph glyph-name="check-circle" unicode="" d="M510.467599 884.275981c-276.388864 0-500.411057-224.006843-500.411057-500.373195 0-276.367375 224.022193-500.373195 500.411057-500.373195 276.314163 0 500.334309 224.004797 500.334309 500.373195C1010.801908 660.269138 786.781762 884.275981 510.467599 884.275981zM423.256328 168.53674L218.145857 373.648234l51.277874 51.277874 153.833621-153.833621 328.178391 328.177368 51.27685-51.275827L423.256328 168.53674z" horiz-adv-x="1024"/>
<glyph glyph-name="share-home" unicode="" d="M746.9512761141026 169.99602283122772c-51.69668160220093 0-97.13111603758267-27.304444420728597-122.46831380123275-68.36956457933276L407.3669402393871 227.00798320094577c10.045103183891943 19.87530516720986 15.726917505054242 42.37260066017864 15.726917505054242 66.18239717886995 0 32.76734092573087-10.775163546833461 63.05629461027733-28.980469274409923 87.51983088908699l128.14510759824697 128.14510759824697c39.60801312108287-38.37183171684573 93.6354642269833-61.96271041937701 153.04748341793876-61.96271041937701 121.44703359756963 0 219.73801043656624 98.36227593633396 219.73801043656624 219.73700652800412 0 121.44703359756963-98.29198172889646 219.8143310393894-219.73801043656624 219.8143310393894S455.5639534154027 788.0786573718085 455.5639534154027 666.6316237742388c0-47.90679724385602 15.29209556109593-92.25066019536139 41.35634098066358-128.3650293229691L367.1754815656233 408.5217806394891c-25.045977922928465 19.805010959772385-56.6484365417595 31.60245861883104-91.01447879112428 31.60245861883104-81.10795620498315 0-146.92783346445643-65.81987725947323-146.92783346445643-146.93285496994224 0-81.11197282056914 65.81987725947323-146.9318510613802 146.92783346445643-146.9318510613802 43.394885753741626 0 82.27786001736885 18.786742481795425 109.21476301321488 48.713176246945146l223.38027705742624-128.9464670585258c-3.638249023936187-12.667092528313063-5.675789888452179-26.064245419567637-5.675789888452179-39.90023785170434 0-79.43695285678773 64.50637232518865-143.79972307873962 143.872026084639-143.79972307873962 79.50825097278722 0 143.87302999320107 64.36377413051402 143.87302999320107 143.79972307873962C890.8233012174039 105.56094960337623 826.458523178328 169.99602283122772 746.9512761141026 169.99602283122772zM675.3059814488927 809.486385289463c78.92681421856828 0 142.85074489963804-63.92895218655568 142.85074489963804-142.8547624965619 0-78.85350730410683-63.92393068106982-142.84974099107603-142.85074489963804-142.84974099107603-78.92581031000618 0-142.8547624965619 63.99623368696919-142.8547624965619 142.84974099107603C532.4512189523307 745.5574331029072 596.3801711388867 809.486385289463 675.3059814488927 809.486385289463zM276.1610037558369 217.17778023629012c-41.938782624782384 0-76.01360405208776 34.002518421405966-76.01360405208776 76.01259916218788 0 42.011085630681755 34.07482142730535 76.01360405208776 76.01360405208776 76.01360405208776s76.01360405208776-34.002518421405966 76.01360405208776-76.01360405208776C352.1746068265868 251.18029865769608 318.09878149071943 217.17778023629012 276.1610037558369 217.17778023629012zM746.9512761141026-48.652421011362094c-41.35634098066358 0-74.84771685528807 33.49338467308638-74.84771685528807 74.77641775795074 0 41.35634098066358 33.49237978318654 74.84872076385012 74.84771685528807 74.84872076385012s74.84872076385012-33.49338467308638 74.84872076385012-74.84872076385012C821.7999968779527-15.159037319613617 788.3066131862045-48.652421011362094 746.9512761141026-48.652421011362094z" horiz-adv-x="1024"/>
<glyph glyph-name="angle-left" unicode="" d="M800.886972-48.77047600000003l0 0 5.311834 5.375832-423.250773 427.410643 423.250773 427.410643-5.343833 5.375832c11.999625 19.679385 10.23968 45.150589-7.007781 62.07806-16.863473 16.63948-42.174682 18.591419-62.046061 7.615762l-9.439705 9.503703-506.992156-511.984 506.992156-511.984 9.439705 9.535702c19.903378-10.943658 45.150589-8.991719 62.046061 7.615762 17.247461 16.991469 19.007406 42.398675 7.03978 62.07806zM757.016343-23.459266999999954c-6.655792 0-13.343583-1.27996-19.583388-3.743883 6.271804 2.495922 12.927596 3.743883 19.583388 3.743883z" horiz-adv-x="1024"/>
<glyph glyph-name="medal" unicode="" d="M1019.36 21.440000000000055C1011.776 11.440000000000055 999.056 6.655999999999949 986.736 9.631999999999948L826.112 46.464000000000055 771.152-106.65599999999995C766.896-118.49599999999998 756.08-126.75199999999995 743.52-127.74400000000003 742.672-127.80799999999999 741.84-127.84000000000003 741.024-127.84000000000003 729.392-127.84000000000003 718.624-121.53599999999994 712.96-111.21600000000001L545.664 193.856C534.832 192.84799999999996 523.872 192.192 512.768 192.192 500.64 192.192 488.656 192.79999999999995 476.848 194L313.152-110.976C307.552-121.40800000000002 296.672-127.84000000000003 284.96-127.84000000000003 284.176-127.84000000000003 283.392-127.80799999999999 282.592-127.74400000000003 269.984-126.81600000000003 259.12-118.55999999999995 254.832-106.65599999999995L199.872 46.464000000000055 39.248 9.631999999999948C26.992 6.751999999999953 14.144 11.47199999999998 6.56 21.50400000000002-1.04 31.567999999999984-2.032 45.152000000000044 4.016 56.19200000000001L192.24 399.472C172.304 443.616 160.928 492.448 160.928 544.0319999999999 160.928 738.336 318.448 895.84 512.768 895.84 707.072 895.84 864.576 738.336 864.576 544.0319999999999 864.576 493.632 853.808 445.808 834.72 402.464L1022.048 56.03200000000004C1028.016 44.976 1026.992 31.440000000000055 1019.36 21.440000000000055ZM94.432 87.93600000000004L213.248 115.18399999999997C229.056 118.94399999999996 245.024 110.06399999999996 250.528 94.81600000000003L290.768-17.34400000000005 411.312 207.18399999999997C337.776 229.312 274.624 274.96000000000004 230.016 335.264L94.432 87.93600000000004ZM512.768 831.568C354.224 831.568 225.2 702.576 225.2 544.0319999999999 225.2 385.472 354.224 256.46400000000006 512.768 256.46400000000006 671.328 256.46400000000006 800.304 385.472 800.304 544.0319999999999 800.304 702.576 671.328 831.568 512.768 831.568ZM797.12 337.44000000000005C751.952 275.376 687.184 228.64 611.696 206.54399999999998L734.928-18.159999999999968 775.456 94.81600000000003C780.96 110.06399999999996 796.864 118.94399999999996 812.736 115.18399999999997L932.112 87.80799999999999 797.12 337.44000000000005Z" horiz-adv-x="1026"/>
<glyph glyph-name="jiantou-zuo-copy" unicode="" d="M740.173 843.663c-30.396 31.269-79.721 31.269-110.194 0l-391.718-403.211c-30.382-31.325-30.382-82.114 0-113.378l391.718-403.197c30.466-31.325 79.793-31.325 110.194 0 30.449 31.28 30.449 82.058 0 113.393l-336.64 346.497 336.639 346.457c30.448 31.325 30.448 82.105 0 113.445v0z" horiz-adv-x="1024"/>
<glyph glyph-name="product" unicode="" d="M768 576l-64 0L704 608C704 731.52 603.52 832 480 832 356.48 832 256 731.52 256 608L256 576 192 576C121.6 576 64 518.4 64 448l0-384c0-70.4 57.6-128 128-128l576 0c70.4 0 128 57.6 128 128L896 448C896 518.4 838.4 576 768 576zM320 608C320 696.3199999999999 391.68 768 480 768 568.32 768 640 696.3199999999999 640 608L640 576 320 576 320 608zM832 64c0-35.2-28.8-64-64-64L192 0c-35.2 0-64 28.8-64 64L128 448c0 35.2 28.8 64 64 64l64 0 0-96C256 398.08 270.08 384 288 384 305.92 384 320 398.08 320 416L320 512l320 0 0-96C640 398.08 654.08 384 672 384 689.92 384 704 398.08 704 416L704 512l64 0c35.2 0 64-28.8 64-64L832 64z" horiz-adv-x="1024"/>
<glyph glyph-name="fujin" unicode="" d="M1002.52462512-55.655118769999945c-0.12752047-0.62448913-0.18710798-1.23110318-0.37064123-1.84248352-0.50054486-1.49686828-1.2144182-2.80543699-2.01648273-4.13426542-0.73055831-1.31214342-1.47780015-2.54086348-2.48723235-3.68615865-0.46836795-0.50054486-1.00108971-0.88548793-1.51593639-1.33955405-1.1715142-1.10119956-2.16545447-2.35375402-3.61822717-3.19276322-4.37857923-2.52775322-9.23863374-3.00922996-13.87344545-2.28463095L45.11273267-72.13497457999995c-6.83840097 0-12.64830016 3.43350233-16.54540265 8.44252854-0.67335249 0.80087296-1.16555486 1.65299092-1.70781212 2.53252099-0.62448913 1.09643181-1.2144182 2.14876948-1.6351144 3.35484519-0.87714544 2.22504198-1.29665004 4.50014036-1.39318368 6.89560683 0 0.02502746-0.01549342 0.04647872-0.01549341 0.07269779 0 0.01310878 0.00595935 0.02383588 0.00595933 0.03456152-0.13466992 3.85539006 0.39447713 7.75249257 2.46458951 11.33854134l159.73112695 276.65729597c5.1115207 8.8548837 15.5455045 12.22641241 24.89497373 9.20883997 1.52070416 0.34561524 2.95560031 0.92481723 4.58118061 0.92481723l106.48741749 0c0.53629796 0 0.98798093-0.26576509 1.51593637-0.30628596 1.41582802-0.09772524 2.74942273-0.44691521 4.14260791-0.83543449 1.39675989-0.39447713 2.72439674-0.79014585 3.98648524-1.44562176 0.47075109-0.2407391 0.99036406-0.24669697 1.4480064-0.52557233 0.72579056-0.44334048 1.14410358-1.15006292 1.79719635-1.66371655 1.1476783-0.89621357 2.20001599-1.79719635 3.14390134-2.90554539 0.89859819-1.0606787 1.59936127-2.16545447 2.26437128-3.36080305 0.65785908-1.16674643 1.22514383-2.31561777 1.65656563-3.60511691 0.46598333-1.40152618 0.69003745-2.78994359 0.86046047-4.25940126 0.09534209-0.82232422 0.48147674-1.54215545 0.48147674-2.3895071 0-0.52795547-0.26219038-0.97129596-0.30032662-1.49090894-0.09772524-1.40748554-0.44691521-2.73512238-0.83304985-4.11877202-0.39447713-1.41463644-0.79253045-2.75776522-1.45515583-4.03534713-0.23239662-0.45168299-0.23597134-0.95461099-0.50292949-1.39556831-0.46836795-0.77107771-25.64698333-43.58914588-9.33874356-75.11395987 12.04168756-23.29561245 46.34929423-37.71131521 99.21878626-41.6834986 29.14722407-2.19524822 58.06920391-3.69926741 86.10569436-5.1520401 145.53590358-7.61424645 283.44921823-14.85546706 294.96890819-122.57994706l133.51090098 0-135.259234 234.27065114-104.05977411 0c-11.76281222 0-21.29700628 9.53538563-21.29700627 21.29700627 0 11.76281222 9.53538563 21.29700628 21.29700627 21.29700627l106.48741747 0c2.31085001 0 4.43220889-0.63521623 6.51543005-1.31571816 8.60580211 1.57195066 17.61919161-2.09394678 22.24327625-10.09671251l157.92439797-273.53603899c2.96870909-3.65874654 4.99472589-8.13505102 4.99472588-13.2155849C1003.49711265-52.545780440000044 1002.90480043-54.06171683000002 1002.52462512-55.655118769999945zM513.94602051 50.48906806000002c-28.34873572 1.49686828-57.59011033 3.01995559-87.08294818 5.23308036-69.5173877 5.21997157-114.59982564 27.04731794-133.99237772 64.86112468-15.13434241 29.51190745-10.41610724 61.15113165-3.07954457 84.1488006l-73.33344846 0L81.20204231-29.539768969999955l686.3118393-2e-8C754.48421312 34.23088323000002 660.20175533 42.84979413999997 513.94602051 50.48906806000002zM528.78361102 147.16222453c-3.99363616-4.03415555-9.43050947-6.30806089-15.11050651-6.30806085-0.01072564 0-0.01072564 0-0.01906813 0-5.66688679 0-11.10614473 2.25364563-15.09978087 6.27826713-10.91903674 10.96432389-283.06427516 212.70192041-283.06427517 419.67021412 0 155.65883514 142.49926302 298.16405602 298.16405604 298.16405603s298.16405602-142.5052209 298.16405604-298.16405603C811.81809095 360.80087939 539.6943038 158.17541181 528.78361102 147.16222453zM513.6540349 822.36553601c-132.18207259 0-255.56885043-123.39035258-255.56885042-255.56289108 0-148.82877518 208.93472153-345.47392058 255.54739769-373.72969738 47.00119545 27.98524394 255.59030171 224.64349812 255.5903017 373.72969738C769.22407693 698.9739904 645.83729905 822.36553601 513.6540349 822.36553601zM385.87199431 566.78715152c0 70.57329863 57.21112511 127.78442523 127.78442522 127.78442522S641.44084475 637.36045014 641.44084475 566.78715152 584.22971814 439.0027263 513.65641953 439.0027263 385.87199431 496.21385143 385.87199431 566.78715152zM598.84563915 566.78715152c0 47.04767418-38.14154545 85.18921963-85.18921962 85.18921963s-85.18921963-38.14154545-85.18921963-85.18921963 38.14154545-85.18921963 85.18921963-85.18921962S598.84563915 519.73947733 598.84563915 566.78715152z" horiz-adv-x="1033"/>
<glyph glyph-name="circle-bottom" unicode="" d="M65.838 382.807c0-247.485 200.635-448.185 448.187-448.185s448.187 200.702 448.187 448.185c0 247.552-200.632 448.187-448.187 448.187-247.552 0.001-448.187-200.634-448.187-448.187zM906.189 382.807c0-216.601-175.563-392.164-392.164-392.164s-392.232 175.529-392.232 392.164 175.631 392.198 392.232 392.198c216.6-0.003 392.164-175.599 392.164-392.198zM274.946 509.839c-10.996-10.923-10.996-28.641 0-39.567l214.432-214.462c6.792-6.725 15.966-8.824 24.647-7.285 8.685-1.54 17.927 0.599 24.65 7.284l214.499 214.462c10.925 10.96 10.925 28.679 0 39.567-10.923 10.993-28.71 10.993-39.636 0l-199.514-199.443-199.443 199.443c-10.993 10.994-28.71 10.994-39.636 0z" horiz-adv-x="1024"/>
<glyph glyph-name="search-o" unicode="" d="M994.1507788800002-63.82933333333335l-301.85396110222223 301.85396110222223c60.43875555555555 68.44871111111111 97.13891555555556 158.40293888 97.13891555555556 256.90112 0 214.47262776888886-173.88885333333332 388.3614811022222-388.3614811022222 388.3614811022222s-388.3614811022222-173.88885333333332-388.3614811022222-388.3614811022222 173.88885333333332-388.3614811022222 388.3614811022222-388.3614811022222c98.49818112 0 188.4524088888889 36.65161443555555 256.90112 97.13891555555556l301.85396110222223-301.85396110222223 17.184995555555552-17.184995555555552 34.321445546666666 34.321445546666666L994.1507788800002-63.82933333333335zM401.0257066666666 155.15799665777774c-187.67568554666664 0-339.8162966755556 152.1406099911111-339.8162966755556 339.8162966755556s152.1406099911111 339.8162966755556 339.8162966755556 339.8162966755556c187.67568554666664 0 339.8162966755556-152.1406099911111 339.8162966755556-339.8162966755556S588.7013922133333 155.15799665777774 401.0257066666666 155.15799665777774z" horiz-adv-x="1024"/>
<glyph glyph-name="chenggong" unicode="" d="M513.81783 894.977023c-282.477714 0-511.488511-228.988292-511.488511-511.483397 0-282.494082 229.010797-511.493626 511.488511-511.493626s511.488511 228.998521 511.488511 511.493626C1025.306342 665.988731 796.295544 894.977023 513.81783 894.977023zM513.81783-87.080919c-259.480168 0-470.569431 211.116883-470.569431 470.574545 0 259.457662 211.089263 470.565339 470.569431 470.565339s470.569431-211.106653 470.569431-470.565339C984.387261 124.035964 773.299021-87.080919 513.81783-87.080919zM769.682797 566.109347 441.23045 247.610565 326.165994 362.655584c-11.988268 11.988268-31.408464 11.988268-43.396731 0s-11.988268-31.408464 0-43.396731l136.423193-136.421147c5.993622-5.993622 13.845994-8.990945 21.698366-8.990945 7.692787 0 15.405011 2.877634 21.358737 8.651317l350.14969 339.536304c12.168312 11.807201 12.468044 31.22842 0.679257 43.395708C801.230386 577.617838 781.830649 577.897111 769.682797 566.109347z" horiz-adv-x="1026"/>
<glyph glyph-name="qq" unicode="" d="M999.5199880000001 219.68823800000018l-2.59137 18.538261-3.317158 18.083366-2.637371 9.292130999999998-2.540258 9.879917-3.3682699999999994 9.435244-3.45516 10.493259-3.950945 9.885028-4.313839 10.155921-7.6821079999999995 16.580678-6.813206999999999 14.612873-6.818317999999999 13.059072999999998-5.954528 12.185061-6.813206999999999 11.086156-4.998737 10.176365999999998-10.590372 15.200659000000002-13.314632 20.245396999999997-3.092266 4.998737-1.047793 2.136475 0 1.676468 2.228476 6.843874 3.092266 6.087418999999999 2.67826 12.021503 1.502688 6.204976 0 6.409424 0.771789 5.152073 0 5.18274-0.771789 5.954528-0.868901 4.860735-1.957583 9.859472-2.540258 9.593691-2.3204769999999995 8.791235-3.6340509999999995 8.545897999999998-4.088947 7.135212-3.2302679999999997 6.705872-3.588051 6.383867999999999-5.637635 9.409688-2.085363 3.337603-0.638898 2.908263-2.59137 18.246924-1.681579 12.021503-1.9115830000000003 14.878653999999997-2.954264 15.384661-4.635843 17.628471-2.632259 9.885028-2.095585 8.361896-2.908263 9.726582-3.271157 10.334812-3.276268 9.58858-4.175837 10.314368-8.545897999999998 19.928503-5.044738 9.430132999999998-6.087418999999999 10.815263999999999-5.729636 9.276798-5.724525 10.493259-8.096114 9.726582-6.813206999999999 9.425021999999998-8.321006 9.726582-8.453897 8.816791-8.545897999999998 8.520342-10.130364999999998 8.837236-5.315631 3.179156-5.039627 4.410951-10.912375999999998 7.743443-12.629734 8.387452-12.905738 7.584995999999999-13.314632 6.843874-14.541315999999998 6.2458659999999995L683.2246379999999 870.510529l-14.219312 5.177629-15.543108 4.247393-14.219312 3.7924979999999997-15.134212999999999 3.322269-14.311312999999998 3.5011599999999996L594.341161 892.233058l-15.134212999999999 1.8400259999999997-15.083102 1.9780279999999997-15.589109 0-15.042212000000001 0-14.546427 0-15.307993999999999-0.889346-14.362425-1.9984729999999997-14.311312999999998-1.972917L460.412828 888.7574529999999l-14.403314-2.749817-13.636637-3.342714-13.631526-4.400729-12.675734-4.410951-12.675734-4.247393-12.726846-6.250976999999999-11.995947-5.019182-10.636372-6.09253-11.091267999999998-6.833652-10.222366-7.135212-10.084364-8.039891-8.321006-7.477661-13.043739999999998-12.292396-10.815263999999999-11.428606-10.360368-11.086156-9.50169-11.270159-8.903681-11.541052-7.814999000000001-11.244602999999998-7.584995999999999-11.249714-3.5471609999999996-5.019182-3.271157-6.09253-7.094321999999999-10.656817-5.637635-10.636372-4.998737-10.038364-4.36495-10.636372-4.267838-9.72147-3.5471609999999996-9.133683999999999-3.271157-9.726582-3.322269-8.970127-4.410951-16.268896-3.2251569999999994-15.660665-1.773581-13.08974-1.819581-11.265048 0-8.658344 0-7.002321 0-6.225421-3.092266-3.363158999999999-2.816262-4.569397999999999-2.223365-4.088947-1.9115830000000003-4.400729-2.412478-9.593691-2.632259-8.816791-0.86379-7.881445-0.587786-5.796082 0-6.225421-6.09253-8.837236-4.313839-8.816791-3.271157-8.494786-2.412478-7.610552-1.865582-7.293658-1.773581-6.859208 0-5.750081 0-6.409424 0-5.315631 1.047793-4.252504 1.497577-7.768998 1.860471-5.928973-3.363158999999999-2.59137-9.54769-7.135212-12.583733-11.541052-7.728108999999999-6.843874-7.538995-6.700761-5.18274-5.341186-4.267838-4.7022889999999995-9.184796-9.885028-8.724789999999999-9.885028-6.818317999999999-8.520342-8.177892999999997-12.317952-7.814999000000001-11.086156-7.728108999999999-12.338396-6.496313999999999-11.40305-5.402520999999999-12.13906-5.729636-11.265048-4.180948-11.091267999999998-4.40584-11.561496-3.271157-11.244602999999998-3.2302679999999997-11.566608-2.862263-10.038364-1.589578-10.79993-1.773581-10.017919-1.497577-9.747026L23.882003999999938 186.98688800000002l0-17.633582 0-7.907 0.909791-7.768998 2.407367-13.227742 0.86379-5.816526 1.589578-5.908528 1.957583-5.596746 1.819581-3.9458329999999995 2.908263-7.319214 2.228476-1.497577 1.359575-3.092266 1.72758-0.725788 1.047793 0 0.725788 0 7.590107000000001 0.725788 7.722998 1.9984729999999997 6.496313999999999 2.59137 6.813206999999999 4.40584 6.225421 4.088947 5.637635 5.361631 6.09253 5.591634 5.131627999999999 5.770526 4.906736 6.542315 4.451841 5.908528 4.180948 4.906736 2.59137 5.637635 5.085626999999999 9.271686 1.589578 3.797609 0.909791 2.269365 0.454895 2.59137 1.180683 2.136475 0.909791 0.454895 1.72758 0.909791 1.088682 0 0.454895-0.909791 0.86379 0 0.86379-0.454895 2.862263-12.609289 3.092266-10.176365999999998 4.134947-10.682372999999998 4.175837-9.58858 3.5011599999999996-9.54769 5.4076319999999996-8.356785 3.950945-8.816791 4.451841-8.091003 5.131627999999999-7.002321 3.910055-6.726317 10.355257-12.450842 9.041683-11.091267999999998 8.724789999999999-8.632788 8.591898999999998-7.768998 7.4521049999999995-6.09253 11.086156-9.859472 4.456952-2.182475 1.497577-2.085363 0-1.047793-1.042681-0.955791L226.744865 26.378177999999934l-2.228476-0.7308989999999999-8.315895-0.628676-7.722998-1.047793-6.501425-0.909791-6.818317999999999-1.497577-5.954528-1.865582-5.908528-1.819581-5.177629-2.775372-4.094058-2.545369-5.223629-1.676468-3.271157-2.724261-3.5011599999999996-2.1415859999999998-3.7720529999999997-3.041154-4.727844-5.913639-1.773581-2.770261-2.182475-2.407367-3.000265-6.225421-1.630467-5.18274-1.957583-5.177629-0.408895-4.543842 0-5.954528 0-2.59137-0.86379-4.221837 0-4.31895-1.047793-4.221837 0-3.7720529999999997 1.047793-4.134947 0.86379-3.6800519999999994 2.366478-7.089210999999998 1.630467-3.363158999999999 2.095585-3.363158999999999 2.315366-3.322269 2.545369-2.908263 3.4091589999999994-3.317158 2.545369-2.724261 7.544105999999999-5.637635 7.584995999999999-4.727844 8.678789-4.267838 9.363688-3.818054 9.905473-4.083835 10.999266-2.55048 10.953266-3.6800519999999994 11.863056-2.453368 11.817056-1.773581 12.179949999999998-1.865582 12.588844-1.824692 24.809683-2.586259 25.586583-0.454895 23.582999 0 11.091267999999998 0 10.636372 0 11.086156 0.454895 9.50169 1.088682 9.174574 0.7308989999999999 8.591898999999998 0.766677 13.810417 2.7293719999999997 9.951474 2.724261 9.455689 2.453368 17.449579 7.319214 7.912111999999999 3.000265 7.538995 3.818054 12.455953 6.99721 11.224158 5.637635 8.315895 5.315631 6.087418999999999 5.637635 9.50169-1.042681 7.360103999999999-0.8228999999999999 14.546427-1.047793 6.813206999999999 0 5.770526 0 4.40584-0.909791 4.502952-1.819581 7.135212-2.586259 7.94789-2.7293719999999997 15.134212999999999-4.727844 15.451107-5.632524 15.042212000000001-4.359839 15.175103-3.097377 15.497107-3.904944 16.044004-2.315366 15.221104-1.681579 15.267104-2.136475 14.265312-1.3646859999999998 15.267104-0.86379 14.633318 0 14.224423 0 13.498635 0 13.631526 1.635579 13.360632999999998 0.587786 12.859737 2.136475 11.863056 2.632259 11.863056 2.55048 11.36216 2.719149 4.727844 1.3646859999999998 5.269629999999999 1.72758 9.864584 3.904944 8.765678999999999 4.088947 8.275006 4.267838 7.722998 4.456952 6.813206999999999 5.131627999999999 2.67826 2.775372 3.2302679999999997 3.7669419999999993 4.140058 5.044738 4.49273 6.225421 1.64069 3.138266 0.725788 2.637371 1.90136 3.363158999999999 0.7308989999999999 3.6340509999999995 0 3.5011599999999996 0.9149019999999999 3.5011599999999996-0.9149019999999999 5.131627999999999-0.7308989999999999 4.410951-1.90136 5.18274-1.497577 4.267838-2.821373 5.18274-3.4040479999999995 4.722733-3.276268 4.094058-4.40584 3.45516-9.087684 7.907-10.176365999999998 7.630997000000001-10.268366999999998 6.087418999999999-10.815263999999999 6.230532-24.722792999999996 12.174837999999998-5.908528 3.639162-1.635579 1.676468-1.047793 1.0937929999999998 11.909057 12.001058 5.136739 5.908528 4.267838 5.453631999999999 8.315895 12.041948 7.861000000000001 12.317952 6.634316 10.953266 6.271421999999999 10.493259 8.407896 20.991629 6.542315 17.454690999999997 4.313839 12.358840999999998 2.499369 4.088947 1.497577 3.317158 2.59137 2.003584 1.088682 0 0.7308989999999999-0.454895 6.363423-12.629734 5.678525-12.179949999999998 4.002056-6.859208 4.129836-5.908528 4.088947-7.273213999999999 5.269629999999999-7.181212 4.40584-4.998737 2.67826-2.724261 2.637371-2.453368 2.407367-1.819581 2.3204769999999995-1.681579 5.090738-2.59137 2.632259-0.909791 1.773581 0 2.3613669999999995 0 2.67826 0.909791 3.322269 1.681579 3.6800519999999994 1.681579 3.046265 2.724261 2.862263 3.179156 3.2251569999999994 3.950945 2.545369 3.046265 2.862263 4.911847 2.1415859999999998 3.9458329999999995 2.540258 5.596746 1.3646859999999998 4.727844 3.6800519999999994 11.546163 2.407367 12.767735999999998 1.722469 14.157977 1.185795 8.223894 0 6.843874 0 7.314103 0 8.954793L999.5199880000001 219.68823800000018zM999.5199880000001 219.68823800000018" horiz-adv-x="1024"/>
<glyph glyph-name="tie" unicode="" d="M725.7993659733334 271.63970560000007l-0.6717986133333333 0.6589906488888889L605.0910765511112 656.4252489955556 402.5479805155555 656.4252489955556 233.75896234666672 116.29130979555555l270.0605656177778-236.31696668444442 270.06173070222223 236.31696668444442L725.4430913422223 271.2880890311111 725.7993659733334 271.63970560000007 725.7993659733334 271.63970560000007zM470.05264327111104 588.8961365333333l67.51048476444444 0 7.0602854399999995-22.945927395555554L426.7117602133332 448.0385570133333 470.05264327111104 588.8961365333333 470.05264327111104 588.8961365333333zM384.26971249777773 310.11034339555556l182.82575872 182.82575872 19.44139889777778-63.176978204444445-238.99018808888889-238.99484501333333L384.26971249777773 310.11034339555556 384.26971249777773 310.11034339555556zM371.5567741155555 113.50748046222213l238.80390087111113 238.81205077333334 20.03868216888889-65.11087274666667L413.22922325333326 71.82921045333319 371.5567741155555 113.50748046222213 371.5567741155555 113.50748046222213zM503.8195279644444-18.74945137777786l-35.274647324444445 35.2699904 187.82989880888886 186.27323676444445 16.23493063111111-52.74838698666667L503.8195279644444-18.74945137777786 503.8195279644444-18.74945137777786zM605.0910765511112 690.1804919466667l67.51746958222222 202.55008199111114L335.0118809599999 892.7305728l67.5291136-202.55008199111114L605.0910765511112 690.1804919466667 605.0910765511112 690.1804919466667zM740.1190308977779 352.59546965333334l168.80182499555553-101.27736945777777-67.5291136 236.31696668444442-168.78319616 101.2529197511111L740.1190308977779 352.59546965333334 740.1190308977779 352.59546965333334zM740.1190308977779 352.59546965333334" horiz-adv-x="1024"/>
<glyph glyph-name="phone" unicode="" d="M801.1386909022228-123.18701820427486h-0.02042417004042067l-5.222303170335254 0.11626066023008688c-121.48610558042833 6.216803142303429-285.5566056951338 120.56073356859694-438.9264117986618 305.8865103353678l-56.64565006210516 68.42725399542165c-153.37451937353748 185.33834548679582-233.7232043125523 366.35305128503484-214.9361100553715 484.21936549829934 13.26471289625167 83.1546516845681 136.892214150918 153.33052885345037 207.5331339607206 153.33052885345037 34.79493029886127 0 47.40292757381325-17.314982924267397 51.80669285252858-27.652755144726473 39.99052493914367-71.06982738065147 89.47357567707363-194.66119356524626 89.70138372752447-238.98321364296223l0.015710900031092816-3.1578909062496563-1.1327558922417924-2.9473648458330137c-8.820099277455508-23.297693656107544-28.552989716508094-34.45871703819588-45.96695131097137-44.30788026768797-22.9347718653893-12.959921435648468-35.97167671119012-21.47051598249145-37.56161979433672-45.97166458098069-0.47604027094211243-7.44068225472556 5.938720211753085-41.2646789316653 107.12320077200326-165.9982275485205l43.25524996560476-52.2340293333743c101.46727676080988-119.74219567697702 133.3933967139936-132.637702422498 140.86707185878447-133.701330354603 24.461871348411524-3.3998387667284864 35.9873876112212 7.3244215944954725 53.58516673604828 26.615835742674346 13.396684456512846 14.688120439068678 28.59226696658583 31.357385372058165 53.67157668621929 35.032164889330765l3.1720307162776407 0.45404501089858246 3.1248980161843614-0.669284341324554c44.18533524744545-9.318134808441151 157.28653348127955-82.20414223268696 221.49698190835593-136.3250506597955 9.267859928341656-6.147675182166619 25.445373690357933-24.419451918327574 12.633134715001738-64.77132755818636-20.094241139767714-63.371486365416-107.7029329831506-157.365087981435-187.5787198312296-157.365087981435v0 0zM801.1386909022228-123.18701820427486z" horiz-adv-x="1024"/>
<glyph glyph-name="calendar" unicode="" d="M107.352411-54.857143l164.571429 0 0 164.571429-164.571429 0 0-164.571429zM308.495269-54.857143l182.857143 0 0 164.571429-182.857143 0 0-164.571429zM107.352411 146.285714l164.571429 0 0 182.857143-164.571429 0 0-182.857143zM308.495269 146.285714l182.857143 0 0 182.857143-182.857143 0 0-182.857143zM107.352411 365.714286l164.571429 0 0 164.571429-164.571429 0 0-164.571429zM527.92384-54.857143l182.857143 0 0 164.571429-182.857143 0 0-164.571429zM308.495269 365.714286l182.857143 0 0 164.571429-182.857143 0 0-164.571429zM747.352411-54.857143l164.571429 0 0 164.571429-164.571429 0 0-164.571429zM527.92384 146.285714l182.857143 0 0 182.857143-182.857143 0 0-182.857143zM326.780983 640l0 164.571429q0 7.424-5.430857 12.854857t-12.854857 5.430857l-36.571429 0q-7.424 0-12.854857-5.430857t-5.430857-12.854857l0-164.571429q0-7.424 5.430857-12.854857t12.854857-5.430857l36.571429 0q7.424 0 12.854857 5.430857t5.430857 12.854857zM747.352411 146.285714l164.571429 0 0 182.857143-164.571429 0 0-182.857143zM527.92384 365.714286l182.857143 0 0 164.571429-182.857143 0 0-164.571429zM747.352411 365.714286l164.571429 0 0 164.571429-164.571429 0 0-164.571429zM765.638126 640l0 164.571429q0 7.424-5.430857 12.854857t-12.854857 5.430857l-36.571429 0q-7.424 0-12.854857-5.430857t-5.430857-12.854857l0-164.571429q0-7.424 5.430857-12.854857t12.854857-5.430857l36.571429 0q7.424 0 12.854857 5.430857t5.430857 12.854857zM985.066697 676.571429l0-731.428571q0-29.714286-21.705143-51.437714t-51.437714-21.705143l-804.571429 0q-29.714286 0-51.437714 21.705143t-21.705143 51.437714l0 731.428571q0 29.714286 21.705143 51.437714t51.437714 21.705143l73.142857 0 0 54.857143q0 37.705143 26.861714 64.566857t64.566857 26.861714l36.571429 0q37.705143 0 64.566857-26.861714t26.861714-64.566857l0-54.857143 219.428571 0 0 54.857143q0 37.705143 26.861714 64.566857t64.566857 26.861714l36.571429 0q37.705143 0 64.566857-26.861714t26.861714-64.566857l0-54.857143 73.142857 0q29.714286 0 51.437714-21.705143t21.705143-51.437714z" horiz-adv-x="1024"/>
<glyph glyph-name="xiazai" unicode="" d="M352 90.032l33.462 33.462 102.876-102.876 0 419.787 47.327 0 0-419.787 102.875 102.876 33.467-33.462-160.002-160.002zM655.145 192.903l0 47.332 107.068 0c88.13 0 159.828 71.696 159.828 159.823 0 83.767-65.502 153.703-149.123 159.218l-47.078 3.147-5.738 46.87c-12.842 104.965-102.305 184.119-208.098 184.119-105.796 0-195.262-79.156-208.103-184.124l-5.738-46.869-47.085-3.143c-83.61-5.513-149.111-75.451-149.111-159.218 0-88.128 71.696-159.823 159.823-159.823l107.066 0 0-47.332-107.068 0c-114.225 0-207.155 92.929-207.155 207.154 0 52.887 19.953 103.207 56.181 141.689 36.052 38.294 84.746 61.296 137.117 64.768l8.009 0.532 0.974 7.969c15.73 128.688 125.394 225.731 255.088 225.731 129.691 0 239.351-97.043 255.083-225.729l0.974-7.969 8.009-0.532c52.371-3.473 101.065-26.475 137.116-64.768 36.228-38.483 56.183-88.803 56.183-141.689 0-114.224-92.929-207.154-207.155-207.154l-107.066 0z" horiz-adv-x="1024"/>
<glyph glyph-name="qq-o" unicode="" d="M537.4602217244445 893.5898225777778c343.99679488000004 0 360.9151658666667-328.50119224888886 360.9151658666667-328.50119224888886 52.181375431111114-69.0985824711111 23.98913536-131.12407267555557 23.98913536-131.12407267555557 167.77258894222223-263.6639288888889 59.22186808888888-339.8367687111111 29.612680533333332-345.4533279288889-29.612680533333332-5.6177231644444445-57.83286328888889 32.44773831111111-57.83286328888889 32.44773831111111s-9.841785742222221-38.035190897777774-33.83790705777778-57.82587847111111c87.44321592888888-40.843469937777776 71.90919054222222-91.63234872888889 71.90919054222222-91.63234872888889s-18.337647502222225-153.33300110222223-382.06342144-56.40660195555555l-31.028462933333333 5.64799488c-348.6225385244444-125.83235242666666-391.94712177777774 43.71695047111111-391.94712177777774 43.71695047111111s-14.110091946666667 70.45847950222222 53.564558222222225 97.28616561777777c-39.48939491555555 23.98913536-53.564558222222225 74.71747072-53.564558222222225 74.71747072s-35.26300444444444-57.79560675555555-81.78474211555555-36.650844160000005c-46.52988757333333 21.14825557333333-74.71630677333333 208.64633059555553 100.09444579555557 343.9956309333333 0 0-25.35019633777778 80.36895857777778 32.446574364444444 128.31695758222222C177.93289557333338 572.1244660622222 193.46226289777775 893.5898225777778 537.4602217244445 893.5898225777778M231.4974537955556 553.78681856c-76.13558215111111-64.83842730666667-25.376975075555556-129.73506901333334-25.376975075555556-129.73506901333334C38.349054862222204 321.11758904888893 67.95940636444442 154.768932408889 67.95940636444442 154.768932408889s26.76365084444444 13.413843626666667 45.79754552888889 52.17555456c19.036223715555554 38.76520391111111 48.645411271111115-6.3430792533333324 48.645411271111115-6.3430792533333324s18.337647502222225-88.82639758222221 74.4822829511111-123.62135552c56.148128426666666-34.796121884444446-2.4741273599999998-56.998064355555556-2.4741273599999998-56.998064355555556s-61.801945315555564-0.8976713955555555-56.47878826666667-42.86352270222222c5.317335040000001-41.96701525333334 204.65396280888888-94.51048618666665 324.2713076622222-1.4192753777777776l63.44010865777778-8.462095928888889c208.68591616-72.57167530666666 311.58747818666666-4.891203128888889 318.45914737777775 8.091850524444444 6.873998222222222 12.984218737777777-31.52212423111111 38.46714367999999-66.81540039111111 53.23506232888889-35.29676913777778 14.776068551111111-44.37710620444444 30.341529599999998-13.155370097777777 51.12768853333333 31.22639303111111 20.779174115555556 43.55627804444445 62.02432625777777 61.82988913777777 104.71669646222222 18.26662513777778 42.69586431999999 45.796381582222224 21.842174862222222 49.33700266666666 9.841785742222221 3.5336351288888888-11.993403164444443 29.60569457777778-52.13946083555555 29.60569457777778-52.13946083555555s67.97503829333333 72.03609941333335-73.32613802666667 284.7830766933333c0 0 30.665203484444444 63.74515370666667-21.152912497777777 115.59004842666667 0 0-12.657051875555556 298.9222764088889-318.6489275733333 298.9222764088889C225.78309347555557 841.4072831999999 231.4974537955556 553.78681856 231.4974537955556 553.78681856" horiz-adv-x="1024"/>
<glyph glyph-name="hezuobaoxiangongsi" unicode="" d="M794.746154 48.074158 794.746154 681.529347l-99.609649 86.385463L360.985076 643.145132l0-31.998785 302.028824 102.381785 0-710.247156 202.419176 0 0 44.793182L794.746154 48.074158 794.746154 48.074158 794.746154 48.074158zM251.735883 243.233999l160.65498 31.992645 0 79.981612-160.65498-41.59228L251.735883 243.233999 251.735883 243.233999 251.735883 243.233999zM251.735883 3.280975l160.65498 0 0 83.189677-160.65498-12.800537L251.735883 3.280975 251.735883 3.280975 251.735883 3.280975zM251.735883 121.660106l160.65498 15.996322 0 79.981612-160.65498-25.594935L251.735883 121.660106 251.735883 121.660106 251.735883 121.660106zM251.735883 364.807892l160.65498 44.788066L412.390863 492.773356l-160.65498-54.386678L251.735883 364.807892 251.735883 364.807892 251.735883 364.807892zM585.888336 572.755991l-89.969081 54.392818L158.5659 505.574916l0-505.489726 44.966121 0L203.532021 483.180883l253.836219 83.184561 0-563.083445 131.732254 0L585.888336 572.755991 585.888336 572.755991 585.888336 572.755991zM585.888336 572.755991" horiz-adv-x="1024"/>
<glyph glyph-name="check" unicode="" d="M1011.0445037037039 739.3507555555555l-133.25653333333332 105.10032592592592c-4.126340740740741 3.398162962962963-9.223585185185184 5.825422222222222-15.049007407407407 5.825422222222222-5.825422222222222 0-11.16539259259259-2.4272592592592592-15.291733333333331-6.068148148148147L362.72355555555555 221.3736296296296c0 0-190.53985185185186 183.25807407407407-195.8798222222222 188.59804444444444-5.33997037037037 5.33997037037037-12.379022222222222 14.32082962962963-23.05896296296296 14.32082962962963-10.67994074074074 0-15.53445925925926-7.5245037037037035-21.117155555555552-13.107200000000002-4.126340740740741-4.369066666666667-72.0896-75.73048888888889-105.58577777777778-111.16847407407407-1.9418074074074074-2.1845333333333334-3.155437037037037-3.398162962962963-4.8545185185185185-5.097244444444445-2.912711111111111-4.126340740740741-4.8545185185185185-8.738133333333334-4.8545185185185185-13.835377777777778 0-5.33997037037037 1.9418074074074074-9.709037037037037 4.8545185185185185-13.835377777777778l6.796325925925926-6.310874074074074c0 0 338.1172148148148-324.7672888888889 343.6999111111111-330.3499851851851 5.582696296296295-5.582696296296295 12.379022222222222-12.621748148148148 22.33078518518518-12.621748148148148 9.709037037037037 0 17.718992592592592 10.437214814814812 22.33078518518518 15.049007407407407L1012.0154074074075 709.7381925925926c2.912711111111111 4.126340740740741 4.8545185185185185 8.738133333333334 4.8545185185185185 14.078103703703704C1016.869925925926 729.8844444444444 1014.4426666666666 734.9816888888888 1011.0445037037039 739.3507555555555z" horiz-adv-x="1024"/>
<glyph glyph-name="dollar" unicode="" d="M509.742 776.636c0 0 196.014 14.407 325.008-169.775l-94.359-31.822 209.665-116.72 62.897 233.44-94.359-53.033c0 0-152.423 249.205-419.37 222.835 0 0-275.636 4.389-408.869-265.271l73.393-53.071c0-0.001 95.699 243.668 345.964 233.434zM556.999-8.55499999999995c0 0-196.001-14.407-325.008 169.934l94.366 31.857-209.682 116.815-62.897-233.659 94.359 53.109c0 0 152.423-249.425 419.37-223.04 0 0 275.659-4.413 408.87 265.509l-73.411 53.109c0 0.001-95.725-243.909-345.964-233.654zM564.496 74.90499999999997v62.518c43.441 6.231 77.385 23.182 101.789 50.815 24.405 27.647 36.598 61.621 36.598 101.962 0 36.092-9.692 65.7-29.077 88.751-19.375 23.07-55.835 41.837-109.317 56.325v130.719c21.616-9.346 34.991-27.178 40.121-53.482l84.577 11.03c-5.797 33.426-19.181 60.113-40.121 80.058s-49.145 32.045-84.577 36.276v33.083h-48.481v-33.083c-38.333-3.782-69.035-18.102-92.125-42.955-23.058-24.843-34.596-55.552-34.596-92.101 0-36.092 10.211-66.806 30.59-92.101 20.397-25.291 52.429-44.183 96.106-56.656v-140.08c-12.046 5.797-22.954 15.163-32.761 28.085-9.799 12.925-16.483 28.29-20.053 46.129l-87.252-9.349c6.693-43.897 22.045-77.883 46.129-101.959 24.069-24.069 55.395-38.463 93.93-43.131v-60.829h48.496zM564.496 341.69500000000005c20.059-5.785 34.501-14.073 43.287-24.919 8.805-10.803 13.219-23.684 13.219-38.604 0-16.711-5.222-31.263-15.717-43.628-10.461-12.368-24.065-20.109-40.784-23.245v130.39zM483.596 475.926c-7.121 10.128-10.688 21.107-10.688 32.915 0 12.925 3.892 24.74 11.713 35.444 7.804 10.694 18.269 18.269 31.422 22.735v-115.678c-14.503 6.249-25.312 14.433-32.451 24.581z" horiz-adv-x="1024"/>
<glyph glyph-name="exchange" unicode="" d="M1024 219.428571l0-109.714286q0-7.428571-5.428571-12.857143t-12.857143-5.428571l-786.285714 0 0-109.714286q0-7.428571-5.428571-12.857143t-12.857143-5.428571q-6.857143 0-13.714286 5.714286l-182.285714 182.857143q-5.142857 5.142857-5.142857 12.571429 0 8 5.142857 13.142857l182.857143 182.857143q5.142857 5.142857 13.142857 5.142857 7.428571 0 12.857143-5.428571t5.428571-12.857143l0-109.714286 786.285714 0q7.428571 0 12.857143-5.428571t5.428571-12.857143zm0 310.857143q0-8-5.142857-13.142857l-182.857143-182.857143q-5.142857-5.142857-13.142857-5.142857-7.428571 0-12.857143 5.428571t-5.428571 12.857143l0 109.714286-786.285714 0q-7.428571 0-12.857143 5.428571t-5.428571 12.857143l0 109.714286q0 7.428571 5.428571 12.857143t12.857143 5.428571l786.285714 0 0 109.714286q0 8 5.142857 13.142857t13.142857 5.142857q6.857143 0 13.714286-5.714286l182.285714-182.285714q5.142857-5.142857 5.142857-13.142857z" horiz-adv-x="1024"/>
<glyph glyph-name="circle-question" unicode="" d="M512-117.65700000000004c-282.77 0-512 226.915-512 506.828s229.23 506.828 512 506.828c282.77 0 512-226.915 512-506.828s-229.23-506.828-512-506.828zM477.307 127.74800000000005l0-98.01 98.01 0 0 98.01-98.01 0zM333.382 463.279l75.053 0c0 20.603 2.355 39.734 7.064 57.393s12.214 32.964 22.516 45.915c10.301 12.95 23.104 23.252 38.409 30.904s33.553 11.479 54.744 11.479c31.787 0 56.952-9.124 75.494-27.372s28.991-43.56 31.346-75.936c1.177-21.78-1.472-40.323-7.947-55.628s-15.158-29.285-26.048-41.941c-10.89-12.656-22.663-24.723-35.319-36.202s-24.723-23.988-36.202-37.527c-11.479-13.539-21.191-28.991-29.138-46.356s-12.509-38.409-13.686-63.133l0-41.5 75.053 0 0 34.436c0 15.305 2.207 28.991 6.622 41.059s10.301 23.252 17.66 33.553c7.358 10.301 15.599 20.014 24.723 29.138s18.395 18.101 27.814 26.931c9.418 9.418 18.69 19.131 27.814 29.138s17.218 20.897 24.282 32.67c7.064 11.773 12.803 24.87 17.218 39.292s6.622 30.757 6.622 49.005c0 28.256-4.562 53.273-13.686 75.053s-21.927 40.175-38.409 55.186c-16.482 15.011-36.055 26.489-58.718 34.436s-47.828 11.92-75.494 11.92c-30.61 0-58.276-5.297-83-15.893s-45.62-25.459-62.691-44.591c-17.071-19.131-30.168-41.647-39.292-67.548s-13.392-53.861-12.803-83.883z" horiz-adv-x="1024"/>
<glyph glyph-name="weixin-o" unicode="" d="M795.362133 327.94986700000004c18.683733 0 31.138133-12.456533 31.138133-31.137067 0-18.683733-12.455467-31.1392-31.138133-31.1392s-31.138133 12.456533-31.138133 31.1392C764.224 315.493333 776.679467 327.94986700000004 795.362133 327.94986700000004zM645.896533 296.81280000000004c0-18.683733-12.455467-31.1392-31.138133-31.1392s-37.3664 12.456533-37.3664 31.1392c0 18.6816 12.455467 31.137067 31.138133 31.137067S645.896533 315.493333 645.896533 296.81280000000004zM608.530133 620.654933c31.138133 0 56.050133-24.912 56.050133-49.821867 0-31.138133-24.910933-49.821867-56.050133-49.821867s-49.821867 24.910933-49.821867 49.821867S583.620267 620.654933 608.530133 620.654933zM315.826133 620.654933c31.1392 0 49.822933-24.912 49.822933-49.821867 0-31.138133-24.910933-49.821867-49.822933-49.821867-31.138133 0-49.821867 24.910933-49.821867 49.821867S284.688 620.654933 315.826133 620.654933zM427.9264 240.76266699999996c0 143.237333 124.555733 255.336533 274.021333 255.336533 43.5936 0 87.188267-12.455467 124.554667-31.138133-12.455467 180.603733-180.603733 317.614933-379.8912 317.614933C241.093333 788.8032000000001 72.945067 633.1104 72.945067 440.049067c0-80.96 31.138133-161.92 87.188267-217.970133L91.627733 72.61226699999997l174.376533 62.277333c56.050133-18.683733 118.327467-37.3664 186.832-37.3664 6.228267 0 12.455467 0 18.683733 0C446.609067 141.11893299999997 427.9264 190.93973300000005 427.9264 240.76266699999996L427.9264 240.76266699999996zM508.8864 53.92960000000005c-18.683733 0-37.3664-6.2272-56.050133-6.2272-62.277333 0-124.554667 12.456533-186.832 37.3664L10.666667-2.120533000000023l99.643733 217.973333c-56.049067 68.504533-80.96 143.237333-80.96 224.197333 0 217.9712 186.832 392.347733 423.486933 392.347733 236.654933 0 423.488-174.376533 423.488-392.347733l0 0c62.277333-49.821867 105.870933-118.3264 105.870933-199.287467 0-49.822933-18.683733-99.643733-43.5936-143.239467L1013.333333-64.39786700000002 820.274133 4.106667000000016c-37.3664-18.6816-74.733867-24.910933-112.0992-24.910933C627.213867-14.574932999999987 558.708267 10.334932999999978 508.8864 53.92960000000005L508.8864 53.92960000000005zM701.946667 452.5056c-130.781867 0-230.426667-93.416533-230.426667-211.742933 0-118.327467 105.872-211.744 230.426667-211.744 37.3664 0 74.7328 12.456533 112.0992 24.910933l105.872-37.3664-37.365333 87.189333c31.138133 37.3664 56.049067 80.96 56.049067 130.782933C938.600533 359.089067 832.7296 452.5056 701.946667 452.5056L701.946667 452.5056z" horiz-adv-x="1024"/>
<glyph glyph-name="caret-right" unicode="" d="M680.0908203125 349.3930664062498l-271.91162109375017-237.30468749999977c-29.663085937500014-29.66308593749997-84.04541015624999-4.943847656249944-84.04541015624999 34.60693359375006L324.1337890625002 621.3046875c2.5439681245126943e-14 44.49462890624999 49.43847656250006 64.27001953124997 84.04541015625003 34.606933593749936l271.9116210937498-237.30468750000006C704.81005859375 403.7753906249999 704.81005859375 364.2246093749999 680.0908203125 349.3930664062498z" horiz-adv-x="1024"/>
<glyph glyph-name="xuanzhong" unicode="" d="M512 895.653099c-282.578844 0-511.653099-229.076302-511.653099-511.653099 0-282.578844 229.074256-511.653099 511.653099-511.653099 282.576797 0 511.653099 229.074256 511.653099 511.653099C1023.653099 666.57782 794.576797 895.653099 512 895.653099zM792.560884 528.700613 448.857914 184.997644c-7.506974-7.506974-17.411555-11.205203-27.306926-11.159154-9.894348-0.045025-19.800975 3.65218-27.307949 11.159154L231.43707 347.804636c-14.923898 14.923898-14.923898 39.3451 0 54.267974 14.923898 14.923898 39.3451 14.923898 54.268998 0l135.843898-135.843898 316.741921 316.741921c14.923898 14.923898 39.3451 14.923898 54.268998 0S807.485805 543.624511 792.560884 528.700613z" horiz-adv-x="1024"/>
</font>
</defs>
</svg>
